<?xml version="1.0" encoding="UTF-8" standalone="no"?>
<!DOCTYPE svg PUBLIC "-//W3C//DTD SVG 1.1//EN"
 "http://www.w3.org/Graphics/SVG/1.1/DTD/svg11.dtd">
<!-- Generated by graphviz version 2.47.0 (20210316.0004)
 -->
<!-- Title: dependencies Pages: 1 -->
<svg width="1952pt" height="284pt"
 viewBox="0.00 0.00 1952.00 284.00" xmlns="http://www.w3.org/2000/svg" xmlns:xlink="http://www.w3.org/1999/xlink">
<g id="graph0" class="graph" transform="scale(1 1) rotate(0) translate(4 280)">
<title>dependencies</title>
<polygon fill="white" stroke="transparent" points="-4,4 -4,-280 1948,-280 1948,4 -4,4"/>
<text text-anchor="start" x="951.01" y="-42.4" font-family="Times-12" font-weight="bold" font-size="14.00">Legend</text>
<polygon fill="#ffffb3" stroke="transparent" points="738,-10 738,-30 758,-30 758,-10 738,-10"/>
<text text-anchor="start" x="761.63" y="-15.4" font-family="Times-12" font-size="14.00"> &#160;Declarations</text>
<polygon fill="#8dd3c7" stroke="transparent" points="851,-10 851,-30 871,-30 871,-10 851,-10"/>
<text text-anchor="start" x="874.73" y="-15.4" font-family="Times-12" font-size="14.00"> &#160;Module</text>
<polygon fill="#80b1d3" stroke="transparent" points="937,-10 937,-30 957,-30 957,-10 937,-10"/>
<text text-anchor="start" x="960.78" y="-15.4" font-family="Times-12" font-size="14.00"> &#160;Bootstrap</text>
<polygon fill="#fdb462" stroke="transparent" points="1034,-10 1034,-30 1054,-30 1054,-10 1034,-10"/>
<text text-anchor="start" x="1057.67" y="-15.4" font-family="Times-12" font-size="14.00"> &#160;Providers</text>
<polygon fill="#fb8072" stroke="transparent" points="1130,-10 1130,-30 1150,-30 1150,-10 1130,-10"/>
<text text-anchor="start" x="1153.73" y="-15.4" font-family="Times-12" font-size="14.00"> &#160;Exports</text>
<g id="clust1" class="cluster">
<title>cluster_CoreModule</title>
<polygon fill="none" stroke="black" stroke-dasharray="1,5" points="8,-70 8,-268 1936,-268 1936,-70 8,-70"/>
</g>
<g id="clust2" class="cluster">
<title>cluster_CoreModule_declarations</title>
<polygon fill="none" stroke="black" points="625,-78 625,-130 1928,-130 1928,-78 625,-78"/>
</g>
<g id="clust12" class="cluster">
<title>cluster_CoreModule_exports</title>
<polygon fill="none" stroke="black" points="842,-208 842,-260 1123,-260 1123,-208 842,-208"/>
</g>
<g id="clust11" class="cluster">
<title>cluster_CoreModule_imports</title>
<polygon fill="none" stroke="black" points="378,-78 378,-130 617,-130 617,-78 378,-78"/>
</g>
<g id="clust14" class="cluster">
<title>cluster_CoreModule_providers</title>
<polygon fill="none" stroke="black" points="16,-78 16,-130 370,-130 370,-78 16,-78"/>
</g>
<!-- DataConsentComponent -->
<g id="node1" class="node">
<title>DataConsentComponent</title>
<polygon fill="#ffffb3" stroke="black" points="1919.65,-122 1766.35,-122 1766.35,-86 1919.65,-86 1919.65,-122"/>
<text text-anchor="middle" x="1843" y="-99.8" font-family="Times,serif" font-size="14.00">DataConsentComponent</text>
</g>
<!-- CoreModule -->
<g id="node9" class="node">
<title>CoreModule</title>
<polygon fill="#8dd3c7" stroke="black" points="1026.26,-187 1023.26,-191 1002.26,-191 999.26,-187 939.74,-187 939.74,-151 1026.26,-151 1026.26,-187"/>
<text text-anchor="middle" x="983" y="-164.8" font-family="Times,serif" font-size="14.00">CoreModule</text>
</g>
<!-- DataConsentComponent&#45;&gt;CoreModule -->
<g id="edge1" class="edge">
<title>DataConsentComponent&#45;&gt;CoreModule</title>
<path fill="none" stroke="black" d="M1843,-122.25C1843,-145.02 1843,-181 1843,-181 1843,-181 1036.53,-181 1036.53,-181"/>
<polygon fill="black" stroke="black" points="1036.53,-177.5 1026.53,-181 1036.53,-184.5 1036.53,-177.5"/>
</g>
<!-- FooterComponent -->
<g id="node2" class="node">
<title>FooterComponent</title>
<polygon fill="#ffffb3" stroke="black" points="1747.88,-122 1630.12,-122 1630.12,-86 1747.88,-86 1747.88,-122"/>
<text text-anchor="middle" x="1689" y="-99.8" font-family="Times,serif" font-size="14.00">FooterComponent</text>
</g>
<!-- FooterComponent&#45;&gt;CoreModule -->
<g id="edge2" class="edge">
<title>FooterComponent&#45;&gt;CoreModule</title>
<path fill="none" stroke="black" d="M1689,-122.28C1689,-143.32 1689,-175 1689,-175 1689,-175 1036.37,-175 1036.37,-175"/>
<polygon fill="black" stroke="black" points="1036.37,-171.5 1026.37,-175 1036.37,-178.5 1036.37,-171.5"/>
</g>
<!-- HeaderComponent -->
<g id="node3" class="node">
<title>HeaderComponent</title>
<polygon fill="#ffffb3" stroke="black" points="1611.74,-122 1490.26,-122 1490.26,-86 1611.74,-86 1611.74,-122"/>
<text text-anchor="middle" x="1551" y="-99.8" font-family="Times,serif" font-size="14.00">HeaderComponent</text>
</g>
<!-- HeaderComponent&#45;&gt;CoreModule -->
<g id="edge3" class="edge">
<title>HeaderComponent&#45;&gt;CoreModule</title>
<path fill="none" stroke="black" d="M1551,-122.11C1551,-141.34 1551,-169 1551,-169 1551,-169 1036.63,-169 1036.63,-169"/>
<polygon fill="black" stroke="black" points="1036.63,-165.5 1026.63,-169 1036.63,-172.5 1036.63,-165.5"/>
</g>
<!-- HomeComponent -->
<g id="node4" class="node">
<title>HomeComponent</title>
<polygon fill="#ffffb3" stroke="black" points="1471.55,-122 1356.45,-122 1356.45,-86 1471.55,-86 1471.55,-122"/>
<text text-anchor="middle" x="1414" y="-99.8" font-family="Times,serif" font-size="14.00">HomeComponent</text>
</g>
<!-- HomeComponent&#45;&gt;CoreModule -->
<g id="edge4" class="edge">
<title>HomeComponent&#45;&gt;CoreModule</title>
<path fill="none" stroke="black" d="M1414,-122.02C1414,-139.37 1414,-163 1414,-163 1414,-163 1036.3,-163 1036.3,-163"/>
<polygon fill="black" stroke="black" points="1036.3,-159.5 1026.3,-163 1036.3,-166.5 1036.3,-159.5"/>
</g>
<!-- NoDataConsentComponent -->
<g id="node5" class="node">
<title>NoDataConsentComponent</title>
<polygon fill="#ffffb3" stroke="black" points="1338.25,-122 1167.75,-122 1167.75,-86 1338.25,-86 1338.25,-122"/>
<text text-anchor="middle" x="1253" y="-99.8" font-family="Times,serif" font-size="14.00">NoDataConsentComponent</text>
</g>
<!-- NoDataConsentComponent&#45;&gt;CoreModule -->
<g id="edge5" class="edge">
<title>NoDataConsentComponent&#45;&gt;CoreModule</title>
<path fill="none" stroke="black" d="M1253,-122.24C1253,-137.57 1253,-157 1253,-157 1253,-157 1036.38,-157 1036.38,-157"/>
<polygon fill="black" stroke="black" points="1036.38,-153.5 1026.38,-157 1036.38,-160.5 1036.38,-153.5"/>
</g>
<!-- NoPrivilegesComponent -->
<g id="node6" class="node">
<title>NoPrivilegesComponent</title>
<polygon fill="#ffffb3" stroke="black" points="1149.43,-122 994.57,-122 994.57,-86 1149.43,-86 1149.43,-122"/>
<text text-anchor="middle" x="1072" y="-99.8" font-family="Times,serif" font-size="14.00">NoPrivilegesComponent</text>
</g>
<!-- NoPrivilegesComponent&#45;&gt;CoreModule -->
<g id="edge6" class="edge">
<title>NoPrivilegesComponent&#45;&gt;CoreModule</title>
<path fill="none" stroke="black" d="M1010.58,-122.11C1010.58,-122.11 1010.58,-140.99 1010.58,-140.99"/>
<polygon fill="black" stroke="black" points="1007.08,-140.99 1010.58,-150.99 1014.08,-140.99 1007.08,-140.99"/>
</g>
<!-- PageNotFoundComponent -->
<g id="node7" class="node">
<title>PageNotFoundComponent</title>
<polygon fill="#ffffb3" stroke="black" points="976.82,-122 811.18,-122 811.18,-86 976.82,-86 976.82,-122"/>
<text text-anchor="middle" x="894" y="-99.8" font-family="Times,serif" font-size="14.00">PageNotFoundComponent</text>
</g>
<!-- PageNotFoundComponent&#45;&gt;CoreModule -->
<g id="edge7" class="edge">
<title>PageNotFoundComponent&#45;&gt;CoreModule</title>
<path fill="none" stroke="black" d="M958.14,-122.11C958.14,-122.11 958.14,-140.99 958.14,-140.99"/>
<polygon fill="black" stroke="black" points="954.64,-140.99 958.14,-150.99 961.64,-140.99 954.64,-140.99"/>
</g>
<!-- PrivacyModalComponent -->
<g id="node8" class="node">
<title>PrivacyModalComponent</title>
<polygon fill="#ffffb3" stroke="black" points="793.15,-122 632.85,-122 632.85,-86 793.15,-86 793.15,-122"/>
<text text-anchor="middle" x="713" y="-99.8" font-family="Times,serif" font-size="14.00">PrivacyModalComponent</text>
</g>
<!-- PrivacyModalComponent&#45;&gt;CoreModule -->
<g id="edge8" class="edge">
<title>PrivacyModalComponent&#45;&gt;CoreModule</title>
<path fill="none" stroke="black" d="M713,-122.24C713,-137.57 713,-157 713,-157 713,-157 929.62,-157 929.62,-157"/>
<polygon fill="black" stroke="black" points="929.62,-160.5 939.62,-157 929.62,-153.5 929.62,-160.5"/>
</g>
<!-- FooterComponent  -->
<g id="node12" class="node">
<title>FooterComponent </title>
<polygon fill="#fb8072" stroke="black" points="1114.88,-252 993.12,-252 993.12,-216 1114.88,-216 1114.88,-252"/>
<text text-anchor="middle" x="1054" y="-229.8" font-family="Times,serif" font-size="14.00">FooterComponent </text>
</g>
<!-- CoreModule&#45;&gt;FooterComponent  -->
<g id="edge11" class="edge">
<title>CoreModule&#45;&gt;FooterComponent </title>
<path fill="none" stroke="black" stroke-dasharray="5,2" d="M1009.85,-187.11C1009.85,-187.11 1009.85,-205.99 1009.85,-205.99"/>
<polygon fill="black" stroke="black" points="1006.35,-205.99 1009.85,-215.99 1013.35,-205.99 1006.35,-205.99"/>
</g>
<!-- HeaderComponent  -->
<g id="node13" class="node">
<title>HeaderComponent </title>
<polygon fill="#fb8072" stroke="black" points="975.74,-252 850.26,-252 850.26,-216 975.74,-216 975.74,-252"/>
<text text-anchor="middle" x="913" y="-229.8" font-family="Times,serif" font-size="14.00">HeaderComponent </text>
</g>
<!-- CoreModule&#45;&gt;HeaderComponent  -->
<g id="edge12" class="edge">
<title>CoreModule&#45;&gt;HeaderComponent </title>
<path fill="none" stroke="black" stroke-dasharray="5,2" d="M957.62,-187.11C957.62,-187.11 957.62,-205.99 957.62,-205.99"/>
<polygon fill="black" stroke="black" points="954.12,-205.99 957.62,-215.99 961.12,-205.99 954.12,-205.99"/>
</g>
<!-- MaterialModule -->
<g id="node10" class="node">
<title>MaterialModule</title>
<polygon fill="#8dd3c7" stroke="black" points="609.47,-122 606.47,-126 585.47,-126 582.47,-122 502.53,-122 502.53,-86 609.47,-86 609.47,-122"/>
<text text-anchor="middle" x="556" y="-99.8" font-family="Times,serif" font-size="14.00">MaterialModule</text>
</g>
<!-- MaterialModule&#45;&gt;CoreModule -->
<g id="edge9" class="edge">
<title>MaterialModule&#45;&gt;CoreModule</title>
<path fill="none" stroke="black" d="M556,-122.02C556,-139.37 556,-163 556,-163 556,-163 929.71,-163 929.71,-163"/>
<polygon fill="black" stroke="black" points="929.71,-166.5 939.71,-163 929.71,-159.5 929.71,-166.5"/>
</g>
<!-- SharedModule -->
<g id="node11" class="node">
<title>SharedModule</title>
<polygon fill="#8dd3c7" stroke="black" points="484.42,-122 481.42,-126 460.42,-126 457.42,-122 385.58,-122 385.58,-86 484.42,-86 484.42,-122"/>
<text text-anchor="middle" x="435" y="-99.8" font-family="Times,serif" font-size="14.00">SharedModule</text>
</g>
<!-- SharedModule&#45;&gt;CoreModule -->
<g id="edge10" class="edge">
<title>SharedModule&#45;&gt;CoreModule</title>
<path fill="none" stroke="black" d="M435,-122.11C435,-141.34 435,-169 435,-169 435,-169 929.54,-169 929.54,-169"/>
<polygon fill="black" stroke="black" points="929.54,-172.5 939.54,-169 929.54,-165.5 929.54,-172.5"/>
</g>
<!-- AuthService -->
<g id="node14" class="node">
<title>AuthService</title>
<ellipse fill="#fdb462" stroke="black" cx="303" cy="-104" rx="59.11" ry="18"/>
<text text-anchor="middle" x="303" y="-99.8" font-family="Times,serif" font-size="14.00">AuthService</text>
</g>
<!-- AuthService&#45;&gt;CoreModule -->
<g id="edge13" class="edge">
<title>AuthService&#45;&gt;CoreModule</title>
<path fill="none" stroke="black" d="M303,-122.28C303,-143.32 303,-175 303,-175 303,-175 929.69,-175 929.69,-175"/>
<polygon fill="black" stroke="black" points="929.69,-178.5 939.69,-175 929.69,-171.5 929.69,-178.5"/>
</g>
<!-- CustomHttpInterceptor -->
<g id="node15" class="node">
<title>CustomHttpInterceptor</title>
<ellipse fill="#fdb462" stroke="black" cx="125" cy="-104" rx="100.72" ry="18"/>
<text text-anchor="middle" x="125" y="-99.8" font-family="Times,serif" font-size="14.00">CustomHttpInterceptor</text>
</g>
<!-- CustomHttpInterceptor&#45;&gt;CoreModule -->
<g id="edge14" class="edge">
<title>CustomHttpInterceptor&#45;&gt;CoreModule</title>
<path fill="none" stroke="black" d="M125,-122.25C125,-145.02 125,-181 125,-181 125,-181 929.57,-181 929.57,-181"/>
<polygon fill="black" stroke="black" points="929.57,-184.5 939.57,-181 929.57,-177.5 929.57,-184.5"/>
</g>
</g>
</svg>
