<?xml version="1.0" encoding="UTF-8" standalone="no"?>
<!DOCTYPE svg PUBLIC "-//W3C//DTD SVG 1.1//EN"
 "http://www.w3.org/Graphics/SVG/1.1/DTD/svg11.dtd">
<!-- Generated by graphviz version 2.47.0 (20210316.0004)
 -->
<!-- Title: dependencies Pages: 1 -->
<svg width="1823pt" height="284pt"
 viewBox="0.00 0.00 1823.00 284.00" xmlns="http://www.w3.org/2000/svg" xmlns:xlink="http://www.w3.org/1999/xlink">
<g id="graph0" class="graph" transform="scale(1 1) rotate(0) translate(4 280)">
<title>dependencies</title>
<polygon fill="white" stroke="transparent" points="-4,4 -4,-280 1819,-280 1819,4 -4,4"/>
<text text-anchor="start" x="886.51" y="-42.4" font-family="Times-12" font-weight="bold" font-size="14.00">Legend</text>
<polygon fill="#ffffb3" stroke="transparent" points="673.5,-10 673.5,-30 693.5,-30 693.5,-10 673.5,-10"/>
<text text-anchor="start" x="697.13" y="-15.4" font-family="Times-12" font-size="14.00"> &#160;Declarations</text>
<polygon fill="#8dd3c7" stroke="transparent" points="786.5,-10 786.5,-30 806.5,-30 806.5,-10 786.5,-10"/>
<text text-anchor="start" x="810.23" y="-15.4" font-family="Times-12" font-size="14.00"> &#160;Module</text>
<polygon fill="#80b1d3" stroke="transparent" points="872.5,-10 872.5,-30 892.5,-30 892.5,-10 872.5,-10"/>
<text text-anchor="start" x="896.28" y="-15.4" font-family="Times-12" font-size="14.00"> &#160;Bootstrap</text>
<polygon fill="#fdb462" stroke="transparent" points="969.5,-10 969.5,-30 989.5,-30 989.5,-10 969.5,-10"/>
<text text-anchor="start" x="993.17" y="-15.4" font-family="Times-12" font-size="14.00"> &#160;Providers</text>
<polygon fill="#fb8072" stroke="transparent" points="1065.5,-10 1065.5,-30 1085.5,-30 1085.5,-10 1065.5,-10"/>
<text text-anchor="start" x="1089.23" y="-15.4" font-family="Times-12" font-size="14.00"> &#160;Exports</text>
<g id="clust1" class="cluster">
<title>cluster_TicketModule</title>
<polygon fill="none" stroke="black" stroke-dasharray="1,5" points="8,-70 8,-268 1807,-268 1807,-70 8,-70"/>
</g>
<g id="clust13" class="cluster">
<title>cluster_TicketModule_exports</title>
<polygon fill="none" stroke="black" points="869,-208 869,-260 1027,-260 1027,-208 869,-208"/>
</g>
<g id="clust12" class="cluster">
<title>cluster_TicketModule_imports</title>
<polygon fill="none" stroke="black" points="1527,-78 1527,-130 1799,-130 1799,-78 1527,-78"/>
</g>
<g id="clust2" class="cluster">
<title>cluster_TicketModule_declarations</title>
<polygon fill="none" stroke="black" points="16,-78 16,-130 1519,-130 1519,-78 16,-78"/>
</g>
<!-- CommentComponent -->
<g id="node1" class="node">
<title>CommentComponent</title>
<polygon fill="#ffffb3" stroke="black" points="1511.06,-122 1374.94,-122 1374.94,-86 1511.06,-86 1511.06,-122"/>
<text text-anchor="middle" x="1443" y="-99.8" font-family="Times,serif" font-size="14.00">CommentComponent</text>
</g>
<!-- TicketModule -->
<g id="node10" class="node">
<title>TicketModule</title>
<polygon fill="#8dd3c7" stroke="black" points="995.81,-187 992.81,-191 971.81,-191 968.81,-187 900.19,-187 900.19,-151 995.81,-151 995.81,-187"/>
<text text-anchor="middle" x="948" y="-164.8" font-family="Times,serif" font-size="14.00">TicketModule</text>
</g>
<!-- CommentComponent&#45;&gt;TicketModule -->
<g id="edge1" class="edge">
<title>CommentComponent&#45;&gt;TicketModule</title>
<path fill="none" stroke="black" d="M1443,-122.11C1443,-141.34 1443,-169 1443,-169 1443,-169 1005.91,-169 1005.91,-169"/>
<polygon fill="black" stroke="black" points="1005.91,-165.5 995.91,-169 1005.91,-172.5 1005.91,-165.5"/>
</g>
<!-- EditAttachmentsComponent -->
<g id="node2" class="node">
<title>EditAttachmentsComponent</title>
<polygon fill="#ffffb3" stroke="black" points="1356.92,-122 1181.08,-122 1181.08,-86 1356.92,-86 1356.92,-122"/>
<text text-anchor="middle" x="1269" y="-99.8" font-family="Times,serif" font-size="14.00">EditAttachmentsComponent</text>
</g>
<!-- EditAttachmentsComponent&#45;&gt;TicketModule -->
<g id="edge2" class="edge">
<title>EditAttachmentsComponent&#45;&gt;TicketModule</title>
<path fill="none" stroke="black" d="M1269,-122.02C1269,-139.37 1269,-163 1269,-163 1269,-163 1005.71,-163 1005.71,-163"/>
<polygon fill="black" stroke="black" points="1005.71,-159.5 995.71,-163 1005.71,-166.5 1005.71,-159.5"/>
</g>
<!-- FaqViewComponent -->
<g id="node3" class="node">
<title>FaqViewComponent</title>
<polygon fill="#ffffb3" stroke="black" points="1163.15,-122 1030.85,-122 1030.85,-86 1163.15,-86 1163.15,-122"/>
<text text-anchor="middle" x="1097" y="-99.8" font-family="Times,serif" font-size="14.00">FaqViewComponent</text>
</g>
<!-- FaqViewComponent&#45;&gt;TicketModule -->
<g id="edge3" class="edge">
<title>FaqViewComponent&#45;&gt;TicketModule</title>
<path fill="none" stroke="black" d="M1097,-122.24C1097,-137.57 1097,-157 1097,-157 1097,-157 1005.96,-157 1005.96,-157"/>
<polygon fill="black" stroke="black" points="1005.96,-153.5 995.96,-157 1005.96,-160.5 1005.96,-153.5"/>
</g>
<!-- MessageComponent -->
<g id="node4" class="node">
<title>MessageComponent</title>
<polygon fill="#ffffb3" stroke="black" points="1013.31,-122 882.69,-122 882.69,-86 1013.31,-86 1013.31,-122"/>
<text text-anchor="middle" x="948" y="-99.8" font-family="Times,serif" font-size="14.00">MessageComponent</text>
</g>
<!-- MessageComponent&#45;&gt;TicketModule -->
<g id="edge4" class="edge">
<title>MessageComponent&#45;&gt;TicketModule</title>
<path fill="none" stroke="black" d="M948,-122.11C948,-122.11 948,-140.99 948,-140.99"/>
<polygon fill="black" stroke="black" points="944.5,-140.99 948,-150.99 951.5,-140.99 944.5,-140.99"/>
</g>
<!-- SubmitFaqComponent -->
<g id="node5" class="node">
<title>SubmitFaqComponent</title>
<polygon fill="#ffffb3" stroke="black" points="864.28,-122 721.72,-122 721.72,-86 864.28,-86 864.28,-122"/>
<text text-anchor="middle" x="793" y="-99.8" font-family="Times,serif" font-size="14.00">SubmitFaqComponent</text>
</g>
<!-- SubmitFaqComponent&#45;&gt;TicketModule -->
<g id="edge5" class="edge">
<title>SubmitFaqComponent&#45;&gt;TicketModule</title>
<path fill="none" stroke="black" d="M793,-122.24C793,-137.57 793,-157 793,-157 793,-157 890.23,-157 890.23,-157"/>
<polygon fill="black" stroke="black" points="890.23,-160.5 900.23,-157 890.23,-153.5 890.23,-160.5"/>
</g>
<!-- SubmitTicketComponent -->
<g id="node6" class="node">
<title>SubmitTicketComponent</title>
<polygon fill="#ffffb3" stroke="black" points="703.55,-122 546.45,-122 546.45,-86 703.55,-86 703.55,-122"/>
<text text-anchor="middle" x="625" y="-99.8" font-family="Times,serif" font-size="14.00">SubmitTicketComponent</text>
</g>
<!-- SubmitTicketComponent&#45;&gt;TicketModule -->
<g id="edge6" class="edge">
<title>SubmitTicketComponent&#45;&gt;TicketModule</title>
<path fill="none" stroke="black" d="M625,-122.02C625,-139.37 625,-163 625,-163 625,-163 890.34,-163 890.34,-163"/>
<polygon fill="black" stroke="black" points="890.34,-166.5 900.34,-163 890.34,-159.5 890.34,-166.5"/>
</g>
<!-- TicketListComponent -->
<g id="node7" class="node">
<title>TicketListComponent</title>
<polygon fill="#ffffb3" stroke="black" points="528.37,-122 389.63,-122 389.63,-86 528.37,-86 528.37,-122"/>
<text text-anchor="middle" x="459" y="-99.8" font-family="Times,serif" font-size="14.00">TicketListComponent</text>
</g>
<!-- TicketListComponent&#45;&gt;TicketModule -->
<g id="edge7" class="edge">
<title>TicketListComponent&#45;&gt;TicketModule</title>
<path fill="none" stroke="black" d="M459,-122.11C459,-141.34 459,-169 459,-169 459,-169 890.22,-169 890.22,-169"/>
<polygon fill="black" stroke="black" points="890.22,-172.5 900.22,-169 890.22,-165.5 890.22,-172.5"/>
</g>
<!-- TicketViewComponent -->
<g id="node8" class="node">
<title>TicketViewComponent</title>
<polygon fill="#ffffb3" stroke="black" points="371.91,-122 224.09,-122 224.09,-86 371.91,-86 371.91,-122"/>
<text text-anchor="middle" x="298" y="-99.8" font-family="Times,serif" font-size="14.00">TicketViewComponent</text>
</g>
<!-- TicketViewComponent&#45;&gt;TicketModule -->
<g id="edge8" class="edge">
<title>TicketViewComponent&#45;&gt;TicketModule</title>
<path fill="none" stroke="black" d="M298,-122.28C298,-143.32 298,-175 298,-175 298,-175 890.2,-175 890.2,-175"/>
<polygon fill="black" stroke="black" points="890.2,-178.5 900.2,-175 890.2,-171.5 890.2,-178.5"/>
</g>
<!-- ViewAttachmentsComponent -->
<g id="node9" class="node">
<title>ViewAttachmentsComponent</title>
<polygon fill="#ffffb3" stroke="black" points="206.41,-122 23.59,-122 23.59,-86 206.41,-86 206.41,-122"/>
<text text-anchor="middle" x="115" y="-99.8" font-family="Times,serif" font-size="14.00">ViewAttachmentsComponent</text>
</g>
<!-- ViewAttachmentsComponent&#45;&gt;TicketModule -->
<g id="edge9" class="edge">
<title>ViewAttachmentsComponent&#45;&gt;TicketModule</title>
<path fill="none" stroke="black" d="M115,-122.25C115,-145.02 115,-181 115,-181 115,-181 890.22,-181 890.22,-181"/>
<polygon fill="black" stroke="black" points="890.22,-184.5 900.22,-181 890.22,-177.5 890.22,-184.5"/>
</g>
<!-- TicketListComponent  -->
<g id="node13" class="node">
<title>TicketListComponent </title>
<polygon fill="#fb8072" stroke="black" points="1019.37,-252 876.63,-252 876.63,-216 1019.37,-216 1019.37,-252"/>
<text text-anchor="middle" x="948" y="-229.8" font-family="Times,serif" font-size="14.00">TicketListComponent </text>
</g>
<!-- TicketModule&#45;&gt;TicketListComponent  -->
<g id="edge12" class="edge">
<title>TicketModule&#45;&gt;TicketListComponent </title>
<path fill="none" stroke="black" stroke-dasharray="5,2" d="M948,-187.11C948,-187.11 948,-205.99 948,-205.99"/>
<polygon fill="black" stroke="black" points="944.5,-205.99 948,-215.99 951.5,-205.99 944.5,-205.99"/>
</g>
<!-- SharedModule -->
<g id="node11" class="node">
<title>SharedModule</title>
<polygon fill="#8dd3c7" stroke="black" points="1791.42,-122 1788.42,-126 1767.42,-126 1764.42,-122 1692.58,-122 1692.58,-86 1791.42,-86 1791.42,-122"/>
<text text-anchor="middle" x="1742" y="-99.8" font-family="Times,serif" font-size="14.00">SharedModule</text>
</g>
<!-- SharedModule&#45;&gt;TicketModule -->
<g id="edge10" class="edge">
<title>SharedModule&#45;&gt;TicketModule</title>
<path fill="none" stroke="black" d="M1742,-122.25C1742,-145.02 1742,-181 1742,-181 1742,-181 1005.88,-181 1005.88,-181"/>
<polygon fill="black" stroke="black" points="1005.88,-177.5 995.88,-181 1005.88,-184.5 1005.88,-177.5"/>
</g>
<!-- TicketRoutingModule -->
<g id="node12" class="node">
<title>TicketRoutingModule</title>
<polygon fill="#8dd3c7" stroke="black" points="1675.43,-122 1672.43,-126 1651.43,-126 1648.43,-122 1534.57,-122 1534.57,-86 1675.43,-86 1675.43,-122"/>
<text text-anchor="middle" x="1605" y="-99.8" font-family="Times,serif" font-size="14.00">TicketRoutingModule</text>
</g>
<!-- TicketRoutingModule&#45;&gt;TicketModule -->
<g id="edge11" class="edge">
<title>TicketRoutingModule&#45;&gt;TicketModule</title>
<path fill="none" stroke="black" d="M1605,-122.28C1605,-143.32 1605,-175 1605,-175 1605,-175 1005.78,-175 1005.78,-175"/>
<polygon fill="black" stroke="black" points="1005.78,-171.5 995.78,-175 1005.78,-178.5 1005.78,-171.5"/>
</g>
</g>
</svg>
