<?xml version="1.0" encoding="UTF-8" standalone="no"?>
<!DOCTYPE svg PUBLIC "-//W3C//DTD SVG 1.1//EN"
 "http://www.w3.org/Graphics/SVG/1.1/DTD/svg11.dtd">
<!-- Generated by graphviz version 2.47.0 (20210316.0004)
 -->
<!-- Title: dependencies Pages: 1 -->
<svg width="1820pt" height="284pt"
 viewBox="0.00 0.00 1820.00 284.00" xmlns="http://www.w3.org/2000/svg" xmlns:xlink="http://www.w3.org/1999/xlink">
<g id="graph0" class="graph" transform="scale(1 1) rotate(0) translate(4 280)">
<title>dependencies</title>
<polygon fill="white" stroke="transparent" points="-4,4 -4,-280 1816,-280 1816,4 -4,4"/>
<text text-anchor="start" x="885.01" y="-42.4" font-family="Times-12" font-weight="bold" font-size="14.00">Legend</text>
<polygon fill="#ffffb3" stroke="transparent" points="672,-10 672,-30 692,-30 692,-10 672,-10"/>
<text text-anchor="start" x="695.63" y="-15.4" font-family="Times-12" font-size="14.00"> &#160;Declarations</text>
<polygon fill="#8dd3c7" stroke="transparent" points="785,-10 785,-30 805,-30 805,-10 785,-10"/>
<text text-anchor="start" x="808.73" y="-15.4" font-family="Times-12" font-size="14.00"> &#160;Module</text>
<polygon fill="#80b1d3" stroke="transparent" points="871,-10 871,-30 891,-30 891,-10 871,-10"/>
<text text-anchor="start" x="894.78" y="-15.4" font-family="Times-12" font-size="14.00"> &#160;Bootstrap</text>
<polygon fill="#fdb462" stroke="transparent" points="968,-10 968,-30 988,-30 988,-10 968,-10"/>
<text text-anchor="start" x="991.67" y="-15.4" font-family="Times-12" font-size="14.00"> &#160;Providers</text>
<polygon fill="#fb8072" stroke="transparent" points="1064,-10 1064,-30 1084,-30 1084,-10 1064,-10"/>
<text text-anchor="start" x="1087.73" y="-15.4" font-family="Times-12" font-size="14.00"> &#160;Exports</text>
<g id="clust1" class="cluster">
<title>cluster_SharedModule</title>
<polygon fill="none" stroke="black" stroke-dasharray="1,5" points="8,-70 8,-268 1804,-268 1804,-70 8,-70"/>
</g>
<g id="clust13" class="cluster">
<title>cluster_SharedModule_imports</title>
<polygon fill="none" stroke="black" points="1604,-78 1604,-130 1726,-130 1726,-78 1604,-78"/>
</g>
<g id="clust2" class="cluster">
<title>cluster_SharedModule_declarations</title>
<polygon fill="none" stroke="black" points="103,-78 103,-130 1596,-130 1596,-78 103,-78"/>
</g>
<g id="clust14" class="cluster">
<title>cluster_SharedModule_exports</title>
<polygon fill="none" stroke="black" points="16,-208 16,-260 1796,-260 1796,-208 16,-208"/>
</g>
<!-- BeginningButtonComponent -->
<g id="node1" class="node">
<title>BeginningButtonComponent</title>
<polygon fill="#ffffb3" stroke="black" points="1587.78,-122 1410.22,-122 1410.22,-86 1587.78,-86 1587.78,-122"/>
<text text-anchor="middle" x="1499" y="-99.8" font-family="Times,serif" font-size="14.00">BeginningButtonComponent</text>
</g>
<!-- SharedModule -->
<g id="node11" class="node">
<title>SharedModule</title>
<polygon fill="#8dd3c7" stroke="black" points="958.42,-187 955.42,-191 934.42,-191 931.42,-187 859.58,-187 859.58,-151 958.42,-151 958.42,-187"/>
<text text-anchor="middle" x="909" y="-164.8" font-family="Times,serif" font-size="14.00">SharedModule</text>
</g>
<!-- BeginningButtonComponent&#45;&gt;SharedModule -->
<g id="edge1" class="edge">
<title>BeginningButtonComponent&#45;&gt;SharedModule</title>
<path fill="none" stroke="black" d="M1430.15,-122.3C1430.15,-140.27 1430.15,-165 1430.15,-165 1430.15,-165 968.5,-165 968.5,-165"/>
<polygon fill="black" stroke="black" points="968.5,-161.5 958.5,-165 968.5,-168.5 968.5,-161.5"/>
</g>
<!-- EditorComponent -->
<g id="node2" class="node">
<title>EditorComponent</title>
<polygon fill="#ffffb3" stroke="black" points="1392.33,-122 1275.67,-122 1275.67,-86 1392.33,-86 1392.33,-122"/>
<text text-anchor="middle" x="1334" y="-99.8" font-family="Times,serif" font-size="14.00">EditorComponent</text>
</g>
<!-- EditorComponent&#45;&gt;SharedModule -->
<g id="edge2" class="edge">
<title>EditorComponent&#45;&gt;SharedModule</title>
<path fill="none" stroke="black" d="M1297.07,-122.04C1297.07,-138.73 1297.07,-161 1297.07,-161 1297.07,-161 968.54,-161 968.54,-161"/>
<polygon fill="black" stroke="black" points="968.54,-157.5 958.54,-161 968.54,-164.5 968.54,-157.5"/>
</g>
<!-- ErrorComponent -->
<g id="node3" class="node">
<title>ErrorComponent</title>
<polygon fill="#ffffb3" stroke="black" points="1257.37,-122 1146.63,-122 1146.63,-86 1257.37,-86 1257.37,-122"/>
<text text-anchor="middle" x="1202" y="-99.8" font-family="Times,serif" font-size="14.00">ErrorComponent</text>
</g>
<!-- ErrorComponent&#45;&gt;SharedModule -->
<g id="edge3" class="edge">
<title>ErrorComponent&#45;&gt;SharedModule</title>
<path fill="none" stroke="black" d="M1170.12,-122.28C1170.12,-137.95 1170.12,-158 1170.12,-158 1170.12,-158 968.42,-158 968.42,-158"/>
<polygon fill="black" stroke="black" points="968.42,-154.5 958.42,-158 968.42,-161.5 968.42,-154.5"/>
</g>
<!-- HeadlineComponent -->
<g id="node4" class="node">
<title>HeadlineComponent</title>
<polygon fill="#ffffb3" stroke="black" points="1128.86,-122 997.14,-122 997.14,-86 1128.86,-86 1128.86,-122"/>
<text text-anchor="middle" x="1063" y="-99.8" font-family="Times,serif" font-size="14.00">HeadlineComponent</text>
</g>
<!-- HeadlineComponent&#45;&gt;SharedModule -->
<g id="edge4" class="edge">
<title>HeadlineComponent&#45;&gt;SharedModule</title>
<path fill="none" stroke="black" d="M1018.65,-122.12C1018.65,-136.78 1018.65,-155 1018.65,-155 1018.65,-155 968.37,-155 968.37,-155"/>
<polygon fill="black" stroke="black" points="968.37,-151.5 958.37,-155 968.37,-158.5 968.37,-151.5"/>
</g>
<!-- MenuLinkComponent -->
<g id="node5" class="node">
<title>MenuLinkComponent</title>
<polygon fill="#ffffb3" stroke="black" points="979.44,-122 838.56,-122 838.56,-86 979.44,-86 979.44,-122"/>
<text text-anchor="middle" x="909" y="-99.8" font-family="Times,serif" font-size="14.00">MenuLinkComponent</text>
</g>
<!-- MenuLinkComponent&#45;&gt;SharedModule -->
<g id="edge5" class="edge">
<title>MenuLinkComponent&#45;&gt;SharedModule</title>
<path fill="none" stroke="black" d="M909,-122.11C909,-122.11 909,-140.99 909,-140.99"/>
<polygon fill="black" stroke="black" points="905.5,-140.99 909,-150.99 912.5,-140.99 905.5,-140.99"/>
</g>
<!-- MenuSrcComponent -->
<g id="node6" class="node">
<title>MenuSrcComponent</title>
<polygon fill="#ffffb3" stroke="black" points="820.15,-122 687.85,-122 687.85,-86 820.15,-86 820.15,-122"/>
<text text-anchor="middle" x="754" y="-99.8" font-family="Times,serif" font-size="14.00">MenuSrcComponent</text>
</g>
<!-- MenuSrcComponent&#45;&gt;SharedModule -->
<g id="edge6" class="edge">
<title>MenuSrcComponent&#45;&gt;SharedModule</title>
<path fill="none" stroke="black" d="M794.18,-122.12C794.18,-136.78 794.18,-155 794.18,-155 794.18,-155 849.64,-155 849.64,-155"/>
<polygon fill="black" stroke="black" points="849.64,-158.5 859.64,-155 849.64,-151.5 849.64,-158.5"/>
</g>
<!-- SafeHtmlPipe -->
<g id="node7" class="node">
<title>SafeHtmlPipe</title>
<polygon fill="#ffffb3" stroke="black" points="669.04,-122 574.96,-122 574.96,-86 669.04,-86 669.04,-122"/>
<text text-anchor="middle" x="622" y="-99.8" font-family="Times,serif" font-size="14.00">SafeHtmlPipe</text>
</g>
<!-- SafeHtmlPipe&#45;&gt;SharedModule -->
<g id="edge7" class="edge">
<title>SafeHtmlPipe&#45;&gt;SharedModule</title>
<path fill="none" stroke="black" d="M641.6,-122.28C641.6,-137.95 641.6,-158 641.6,-158 641.6,-158 849.64,-158 849.64,-158"/>
<polygon fill="black" stroke="black" points="849.64,-161.5 859.64,-158 849.64,-154.5 849.64,-161.5"/>
</g>
<!-- SearchBarComponent -->
<g id="node8" class="node">
<title>SearchBarComponent</title>
<polygon fill="#ffffb3" stroke="black" points="556.63,-122 417.37,-122 417.37,-86 556.63,-86 556.63,-122"/>
<text text-anchor="middle" x="487" y="-99.8" font-family="Times,serif" font-size="14.00">SearchBarComponent</text>
</g>
<!-- SearchBarComponent&#45;&gt;SharedModule -->
<g id="edge8" class="edge">
<title>SearchBarComponent&#45;&gt;SharedModule</title>
<path fill="none" stroke="black" d="M527.4,-122.04C527.4,-138.73 527.4,-161 527.4,-161 527.4,-161 849.5,-161 849.5,-161"/>
<polygon fill="black" stroke="black" points="849.5,-164.5 859.5,-161 849.5,-157.5 849.5,-164.5"/>
</g>
<!-- SenderInfoComponent -->
<g id="node9" class="node">
<title>SenderInfoComponent</title>
<polygon fill="#ffffb3" stroke="black" points="398.53,-122 255.47,-122 255.47,-86 398.53,-86 398.53,-122"/>
<text text-anchor="middle" x="327" y="-99.8" font-family="Times,serif" font-size="14.00">SenderInfoComponent</text>
</g>
<!-- SenderInfoComponent&#45;&gt;SharedModule -->
<g id="edge9" class="edge">
<title>SenderInfoComponent&#45;&gt;SharedModule</title>
<path fill="none" stroke="black" d="M367.6,-122.3C367.6,-140.27 367.6,-165 367.6,-165 367.6,-165 849.52,-165 849.52,-165"/>
<polygon fill="black" stroke="black" points="849.52,-168.5 859.52,-165 849.52,-161.5 849.52,-168.5"/>
</g>
<!-- SuccessComponent -->
<g id="node10" class="node">
<title>SuccessComponent</title>
<polygon fill="#ffffb3" stroke="black" points="236.65,-122 111.35,-122 111.35,-86 236.65,-86 236.65,-122"/>
<text text-anchor="middle" x="174" y="-99.8" font-family="Times,serif" font-size="14.00">SuccessComponent</text>
</g>
<!-- SuccessComponent&#45;&gt;SharedModule -->
<g id="edge10" class="edge">
<title>SuccessComponent&#45;&gt;SharedModule</title>
<path fill="none" stroke="black" d="M204.16,-122.17C204.16,-141.09 204.16,-168 204.16,-168 204.16,-168 849.72,-168 849.72,-168"/>
<polygon fill="black" stroke="black" points="849.72,-171.5 859.72,-168 849.72,-164.5 849.72,-171.5"/>
</g>
<!-- BeginningButtonComponent  -->
<g id="node13" class="node">
<title>BeginningButtonComponent </title>
<polygon fill="#fb8072" stroke="black" points="1787.78,-252 1606.22,-252 1606.22,-216 1787.78,-216 1787.78,-252"/>
<text text-anchor="middle" x="1697" y="-229.8" font-family="Times,serif" font-size="14.00">BeginningButtonComponent </text>
</g>
<!-- SharedModule&#45;&gt;BeginningButtonComponent  -->
<g id="edge12" class="edge">
<title>SharedModule&#45;&gt;BeginningButtonComponent </title>
<path fill="none" stroke="black" stroke-dasharray="5,2" d="M958.29,-171C1123.48,-171 1647.17,-171 1647.17,-171 1647.17,-171 1647.17,-205.78 1647.17,-205.78"/>
<polygon fill="black" stroke="black" points="1643.67,-205.78 1647.17,-215.78 1650.67,-205.78 1643.67,-205.78"/>
</g>
<!-- EditorComponent  -->
<g id="node14" class="node">
<title>EditorComponent </title>
<polygon fill="#fb8072" stroke="black" points="1587.83,-252 1468.17,-252 1468.17,-216 1587.83,-216 1587.83,-252"/>
<text text-anchor="middle" x="1528" y="-229.8" font-family="Times,serif" font-size="14.00">EditorComponent </text>
</g>
<!-- SharedModule&#45;&gt;EditorComponent  -->
<g id="edge13" class="edge">
<title>SharedModule&#45;&gt;EditorComponent </title>
<path fill="none" stroke="black" stroke-dasharray="5,2" d="M958.35,-174C1104.99,-174 1527.99,-174 1527.99,-174 1527.99,-174 1527.99,-206 1527.99,-206"/>
<polygon fill="black" stroke="black" points="1524.49,-206 1527.99,-216 1531.49,-206 1524.49,-206"/>
</g>
<!-- ErrorComponent  -->
<g id="node15" class="node">
<title>ErrorComponent </title>
<polygon fill="#fb8072" stroke="black" points="1450.37,-252 1335.63,-252 1335.63,-216 1450.37,-216 1450.37,-252"/>
<text text-anchor="middle" x="1393" y="-229.8" font-family="Times,serif" font-size="14.00">ErrorComponent </text>
</g>
<!-- SharedModule&#45;&gt;ErrorComponent  -->
<g id="edge14" class="edge">
<title>SharedModule&#45;&gt;ErrorComponent </title>
<path fill="none" stroke="black" stroke-dasharray="5,2" d="M958.56,-178C1076.48,-178 1363.99,-178 1363.99,-178 1363.99,-178 1363.99,-205.97 1363.99,-205.97"/>
<polygon fill="black" stroke="black" points="1360.49,-205.97 1363.99,-215.97 1367.49,-205.97 1360.49,-205.97"/>
</g>
<!-- FilesizeModule  -->
<g id="node16" class="node">
<title>FilesizeModule </title>
<polygon fill="#fb8072" stroke="black" points="1318.09,-252 1211.91,-252 1211.91,-216 1318.09,-216 1318.09,-252"/>
<text text-anchor="middle" x="1265" y="-229.8" font-family="Times,serif" font-size="14.00">FilesizeModule </text>
</g>
<!-- SharedModule&#45;&gt;FilesizeModule  -->
<g id="edge15" class="edge">
<title>SharedModule&#45;&gt;FilesizeModule </title>
<path fill="none" stroke="black" stroke-dasharray="5,2" d="M958.45,-181C1049.52,-181 1234.57,-181 1234.57,-181 1234.57,-181 1234.57,-205.76 1234.57,-205.76"/>
<polygon fill="black" stroke="black" points="1231.07,-205.76 1234.57,-215.76 1238.07,-205.76 1231.07,-205.76"/>
</g>
<!-- HeadlineComponent  -->
<g id="node17" class="node">
<title>HeadlineComponent </title>
<polygon fill="#fb8072" stroke="black" points="1193.86,-252 1058.14,-252 1058.14,-216 1193.86,-216 1193.86,-252"/>
<text text-anchor="middle" x="1126" y="-229.8" font-family="Times,serif" font-size="14.00">HeadlineComponent </text>
</g>
<!-- SharedModule&#45;&gt;HeadlineComponent  -->
<g id="edge16" class="edge">
<title>SharedModule&#45;&gt;HeadlineComponent </title>
<path fill="none" stroke="black" stroke-dasharray="5,2" d="M958.48,-184C1013.16,-184 1093.62,-184 1093.62,-184 1093.62,-184 1093.62,-205.95 1093.62,-205.95"/>
<polygon fill="black" stroke="black" points="1090.13,-205.95 1093.62,-215.95 1097.13,-205.95 1090.13,-205.95"/>
</g>
<!-- MaterialModule  -->
<g id="node18" class="node">
<title>MaterialModule </title>
<polygon fill="#fb8072" stroke="black" points="1040.47,-252 929.53,-252 929.53,-216 1040.47,-216 1040.47,-252"/>
<text text-anchor="middle" x="985" y="-229.8" font-family="Times,serif" font-size="14.00">MaterialModule </text>
</g>
<!-- SharedModule&#45;&gt;MaterialModule  -->
<g id="edge17" class="edge">
<title>SharedModule&#45;&gt;MaterialModule </title>
<path fill="none" stroke="black" stroke-dasharray="5,2" d="M943.99,-187.11C943.99,-187.11 943.99,-205.99 943.99,-205.99"/>
<polygon fill="black" stroke="black" points="940.49,-205.99 943.99,-215.99 947.49,-205.99 940.49,-205.99"/>
</g>
<!-- MenuLinkComponent  -->
<g id="node19" class="node">
<title>MenuLinkComponent </title>
<polygon fill="#fb8072" stroke="black" points="911.93,-252 768.07,-252 768.07,-216 911.93,-216 911.93,-252"/>
<text text-anchor="middle" x="840" y="-229.8" font-family="Times,serif" font-size="14.00">MenuLinkComponent </text>
</g>
<!-- SharedModule&#45;&gt;MenuLinkComponent  -->
<g id="edge18" class="edge">
<title>SharedModule&#45;&gt;MenuLinkComponent </title>
<path fill="none" stroke="black" stroke-dasharray="5,2" d="M885.88,-187.11C885.88,-187.11 885.88,-205.99 885.88,-205.99"/>
<polygon fill="black" stroke="black" points="882.38,-205.99 885.88,-215.99 889.38,-205.99 882.38,-205.99"/>
</g>
<!-- MenuSrcComponent  -->
<g id="node20" class="node">
<title>MenuSrcComponent </title>
<polygon fill="#fb8072" stroke="black" points="750.15,-252 613.85,-252 613.85,-216 750.15,-216 750.15,-252"/>
<text text-anchor="middle" x="682" y="-229.8" font-family="Times,serif" font-size="14.00">MenuSrcComponent </text>
</g>
<!-- SharedModule&#45;&gt;MenuSrcComponent  -->
<g id="edge19" class="edge">
<title>SharedModule&#45;&gt;MenuSrcComponent </title>
<path fill="none" stroke="black" stroke-dasharray="5,2" d="M859.54,-184C803.21,-184 718.88,-184 718.88,-184 718.88,-184 718.88,-205.95 718.88,-205.95"/>
<polygon fill="black" stroke="black" points="715.38,-205.95 718.88,-215.95 722.38,-205.95 715.38,-205.95"/>
</g>
<!-- SafeHtmlPipe  -->
<g id="node21" class="node">
<title>SafeHtmlPipe </title>
<polygon fill="#fb8072" stroke="black" points="596.04,-252 497.96,-252 497.96,-216 596.04,-216 596.04,-252"/>
<text text-anchor="middle" x="547" y="-229.8" font-family="Times,serif" font-size="14.00">SafeHtmlPipe </text>
</g>
<!-- SharedModule&#45;&gt;SafeHtmlPipe  -->
<g id="edge20" class="edge">
<title>SharedModule&#45;&gt;SafeHtmlPipe </title>
<path fill="none" stroke="black" stroke-dasharray="5,2" d="M859.5,-181C768.84,-181 585.38,-181 585.38,-181 585.38,-181 585.38,-205.76 585.38,-205.76"/>
<polygon fill="black" stroke="black" points="581.88,-205.76 585.38,-215.76 588.88,-205.76 581.88,-205.76"/>
</g>
<!-- SearchBarComponent  -->
<g id="node22" class="node">
<title>SearchBarComponent </title>
<polygon fill="#fb8072" stroke="black" points="479.63,-252 336.37,-252 336.37,-216 479.63,-216 479.63,-252"/>
<text text-anchor="middle" x="408" y="-229.8" font-family="Times,serif" font-size="14.00">SearchBarComponent </text>
</g>
<!-- SharedModule&#45;&gt;SearchBarComponent  -->
<g id="edge21" class="edge">
<title>SharedModule&#45;&gt;SearchBarComponent </title>
<path fill="none" stroke="black" stroke-dasharray="5,2" d="M859.71,-178C740.88,-178 448.38,-178 448.38,-178 448.38,-178 448.38,-205.97 448.38,-205.97"/>
<polygon fill="black" stroke="black" points="444.88,-205.97 448.38,-215.97 451.88,-205.97 444.88,-205.97"/>
</g>
<!-- SenderInfoComponent  -->
<g id="node23" class="node">
<title>SenderInfoComponent </title>
<polygon fill="#fb8072" stroke="black" points="318.53,-252 171.47,-252 171.47,-216 318.53,-216 318.53,-252"/>
<text text-anchor="middle" x="245" y="-229.8" font-family="Times,serif" font-size="14.00">SenderInfoComponent </text>
</g>
<!-- SharedModule&#45;&gt;SenderInfoComponent  -->
<g id="edge22" class="edge">
<title>SharedModule&#45;&gt;SenderInfoComponent </title>
<path fill="none" stroke="black" stroke-dasharray="5,2" d="M859.66,-174C712.52,-174 286.88,-174 286.88,-174 286.88,-174 286.88,-206 286.88,-206"/>
<polygon fill="black" stroke="black" points="283.38,-206 286.88,-216 290.38,-206 283.38,-206"/>
</g>
<!-- SuccessComponent  -->
<g id="node24" class="node">
<title>SuccessComponent </title>
<polygon fill="#fb8072" stroke="black" points="153.65,-252 24.35,-252 24.35,-216 153.65,-216 153.65,-252"/>
<text text-anchor="middle" x="89" y="-229.8" font-family="Times,serif" font-size="14.00">SuccessComponent </text>
</g>
<!-- SharedModule&#45;&gt;SuccessComponent  -->
<g id="edge23" class="edge">
<title>SharedModule&#45;&gt;SuccessComponent </title>
<path fill="none" stroke="black" stroke-dasharray="5,2" d="M859.53,-171C688.47,-171 132.38,-171 132.38,-171 132.38,-171 132.38,-205.78 132.38,-205.78"/>
<polygon fill="black" stroke="black" points="128.88,-205.78 132.38,-215.78 135.88,-205.78 128.88,-205.78"/>
</g>
<!-- MaterialModule -->
<g id="node12" class="node">
<title>MaterialModule</title>
<polygon fill="#8dd3c7" stroke="black" points="1718.47,-122 1715.47,-126 1694.47,-126 1691.47,-122 1611.53,-122 1611.53,-86 1718.47,-86 1718.47,-122"/>
<text text-anchor="middle" x="1665" y="-99.8" font-family="Times,serif" font-size="14.00">MaterialModule</text>
</g>
<!-- MaterialModule&#45;&gt;SharedModule -->
<g id="edge11" class="edge">
<title>MaterialModule&#45;&gt;SharedModule</title>
<path fill="none" stroke="black" d="M1682.83,-122.17C1682.83,-141.09 1682.83,-168 1682.83,-168 1682.83,-168 968.29,-168 968.29,-168"/>
<polygon fill="black" stroke="black" points="968.29,-164.5 958.29,-168 968.29,-171.5 968.29,-164.5"/>
</g>
</g>
</svg>
