<?xml version="1.0" encoding="UTF-8" standalone="no"?>
<!DOCTYPE svg PUBLIC "-//W3C//DTD SVG 1.1//EN"
 "http://www.w3.org/Graphics/SVG/1.1/DTD/svg11.dtd">
<!-- Generated by graphviz version 2.47.0 (20210316.0004)
 -->
<!-- Title: dependencies Pages: 1 -->
<svg width="2004pt" height="284pt"
 viewBox="0.00 0.00 2004.00 284.00" xmlns="http://www.w3.org/2000/svg" xmlns:xlink="http://www.w3.org/1999/xlink">
<g id="graph0" class="graph" transform="scale(1 1) rotate(0) translate(4 280)">
<title>dependencies</title>
<polygon fill="white" stroke="transparent" points="-4,4 -4,-280 2000,-280 2000,4 -4,4"/>
<text text-anchor="start" x="977.01" y="-42.4" font-family="Times-12" font-weight="bold" font-size="14.00">Legend</text>
<polygon fill="#ffffb3" stroke="transparent" points="764,-10 764,-30 784,-30 784,-10 764,-10"/>
<text text-anchor="start" x="787.63" y="-15.4" font-family="Times-12" font-size="14.00"> &#160;Declarations</text>
<polygon fill="#8dd3c7" stroke="transparent" points="877,-10 877,-30 897,-30 897,-10 877,-10"/>
<text text-anchor="start" x="900.73" y="-15.4" font-family="Times-12" font-size="14.00"> &#160;Module</text>
<polygon fill="#80b1d3" stroke="transparent" points="963,-10 963,-30 983,-30 983,-10 963,-10"/>
<text text-anchor="start" x="986.78" y="-15.4" font-family="Times-12" font-size="14.00"> &#160;Bootstrap</text>
<polygon fill="#fdb462" stroke="transparent" points="1060,-10 1060,-30 1080,-30 1080,-10 1060,-10"/>
<text text-anchor="start" x="1083.67" y="-15.4" font-family="Times-12" font-size="14.00"> &#160;Providers</text>
<polygon fill="#fb8072" stroke="transparent" points="1156,-10 1156,-30 1176,-30 1176,-10 1156,-10"/>
<text text-anchor="start" x="1179.73" y="-15.4" font-family="Times-12" font-size="14.00"> &#160;Exports</text>
<g id="clust1" class="cluster">
<title>cluster_SharedModule</title>
<polygon fill="none" stroke="black" stroke-dasharray="1,5" points="8,-70 8,-268 1988,-268 1988,-70 8,-70"/>
</g>
<g id="clust2" class="cluster">
<title>cluster_SharedModule_declarations</title>
<polygon fill="none" stroke="black" points="249,-78 249,-130 1923,-130 1923,-78 249,-78"/>
</g>
<g id="clust15" class="cluster">
<title>cluster_SharedModule_exports</title>
<polygon fill="none" stroke="black" points="16,-208 16,-260 1980,-260 1980,-208 16,-208"/>
</g>
<g id="clust14" class="cluster">
<title>cluster_SharedModule_imports</title>
<polygon fill="none" stroke="black" points="119,-78 119,-130 241,-130 241,-78 119,-78"/>
</g>
<!-- BeginningButtonComponent -->
<g id="node1" class="node">
<title>BeginningButtonComponent</title>
<polygon fill="#ffffb3" stroke="black" points="1914.78,-122 1737.22,-122 1737.22,-86 1914.78,-86 1914.78,-122"/>
<text text-anchor="middle" x="1826" y="-99.8" font-family="Times,serif" font-size="14.00">BeginningButtonComponent</text>
</g>
<!-- SharedModule -->
<g id="node12" class="node">
<title>SharedModule</title>
<polygon fill="#8dd3c7" stroke="black" points="1073.42,-187 1070.42,-191 1049.42,-191 1046.42,-187 974.58,-187 974.58,-151 1073.42,-151 1073.42,-187"/>
<text text-anchor="middle" x="1024" y="-164.8" font-family="Times,serif" font-size="14.00">SharedModule</text>
</g>
<!-- BeginningButtonComponent&#45;&gt;SharedModule -->
<g id="edge1" class="edge">
<title>BeginningButtonComponent&#45;&gt;SharedModule</title>
<path fill="none" stroke="black" d="M1754.51,-122.27C1754.51,-140.56 1754.51,-166 1754.51,-166 1754.51,-166 1083.35,-166 1083.35,-166"/>
<polygon fill="black" stroke="black" points="1083.35,-162.5 1073.35,-166 1083.35,-169.5 1083.35,-162.5"/>
</g>
<!-- EditorComponent -->
<g id="node2" class="node">
<title>EditorComponent</title>
<polygon fill="#ffffb3" stroke="black" points="1719.33,-122 1602.67,-122 1602.67,-86 1719.33,-86 1719.33,-122"/>
<text text-anchor="middle" x="1661" y="-99.8" font-family="Times,serif" font-size="14.00">EditorComponent</text>
</g>
<!-- EditorComponent&#45;&gt;SharedModule -->
<g id="edge2" class="edge">
<title>EditorComponent&#45;&gt;SharedModule</title>
<path fill="none" stroke="black" d="M1618.51,-122.02C1618.51,-139.37 1618.51,-163 1618.51,-163 1618.51,-163 1083.41,-163 1083.41,-163"/>
<polygon fill="black" stroke="black" points="1083.41,-159.5 1073.41,-163 1083.41,-166.5 1083.41,-159.5"/>
</g>
<!-- ErrorComponent -->
<g id="node3" class="node">
<title>ErrorComponent</title>
<polygon fill="#ffffb3" stroke="black" points="1584.37,-122 1473.63,-122 1473.63,-86 1584.37,-86 1584.37,-122"/>
<text text-anchor="middle" x="1529" y="-99.8" font-family="Times,serif" font-size="14.00">ErrorComponent</text>
</g>
<!-- ErrorComponent&#45;&gt;SharedModule -->
<g id="edge3" class="edge">
<title>ErrorComponent&#45;&gt;SharedModule</title>
<path fill="none" stroke="black" d="M1487.93,-122.03C1487.93,-138.4 1487.93,-160 1487.93,-160 1487.93,-160 1083.65,-160 1083.65,-160"/>
<polygon fill="black" stroke="black" points="1083.65,-156.5 1073.65,-160 1083.65,-163.5 1083.65,-156.5"/>
</g>
<!-- HeadlineComponent -->
<g id="node4" class="node">
<title>HeadlineComponent</title>
<polygon fill="#ffffb3" stroke="black" points="1455.86,-122 1324.14,-122 1324.14,-86 1455.86,-86 1455.86,-122"/>
<text text-anchor="middle" x="1390" y="-99.8" font-family="Times,serif" font-size="14.00">HeadlineComponent</text>
</g>
<!-- HeadlineComponent&#45;&gt;SharedModule -->
<g id="edge4" class="edge">
<title>HeadlineComponent&#45;&gt;SharedModule</title>
<path fill="none" stroke="black" d="M1350.88,-122.24C1350.88,-137.57 1350.88,-157 1350.88,-157 1350.88,-157 1083.29,-157 1083.29,-157"/>
<polygon fill="black" stroke="black" points="1083.29,-153.5 1073.29,-157 1083.29,-160.5 1083.29,-153.5"/>
</g>
<!-- MenuLinkComponent -->
<g id="node5" class="node">
<title>MenuLinkComponent</title>
<polygon fill="#ffffb3" stroke="black" points="1306.44,-122 1165.56,-122 1165.56,-86 1306.44,-86 1306.44,-122"/>
<text text-anchor="middle" x="1236" y="-99.8" font-family="Times,serif" font-size="14.00">MenuLinkComponent</text>
</g>
<!-- MenuLinkComponent&#45;&gt;SharedModule -->
<g id="edge5" class="edge">
<title>MenuLinkComponent&#45;&gt;SharedModule</title>
<path fill="none" stroke="black" d="M1195.01,-122.05C1195.01,-136.37 1195.01,-154 1195.01,-154 1195.01,-154 1083.46,-154 1083.46,-154"/>
<polygon fill="black" stroke="black" points="1083.46,-150.5 1073.46,-154 1083.46,-157.5 1083.46,-150.5"/>
</g>
<!-- MenuSrcComponent -->
<g id="node6" class="node">
<title>MenuSrcComponent</title>
<polygon fill="#ffffb3" stroke="black" points="1147.15,-122 1014.85,-122 1014.85,-86 1147.15,-86 1147.15,-122"/>
<text text-anchor="middle" x="1081" y="-99.8" font-family="Times,serif" font-size="14.00">MenuSrcComponent</text>
</g>
<!-- MenuSrcComponent&#45;&gt;SharedModule -->
<g id="edge6" class="edge">
<title>MenuSrcComponent&#45;&gt;SharedModule</title>
<path fill="none" stroke="black" d="M1043.94,-122.11C1043.94,-122.11 1043.94,-140.99 1043.94,-140.99"/>
<polygon fill="black" stroke="black" points="1040.44,-140.99 1043.94,-150.99 1047.44,-140.99 1040.44,-140.99"/>
</g>
<!-- RefreshDialogComponent -->
<g id="node7" class="node">
<title>RefreshDialogComponent</title>
<polygon fill="#ffffb3" stroke="black" points="996.47,-122 833.53,-122 833.53,-86 996.47,-86 996.47,-122"/>
<text text-anchor="middle" x="915" y="-99.8" font-family="Times,serif" font-size="14.00">RefreshDialogComponent</text>
</g>
<!-- RefreshDialogComponent&#45;&gt;SharedModule -->
<g id="edge7" class="edge">
<title>RefreshDialogComponent&#45;&gt;SharedModule</title>
<path fill="none" stroke="black" d="M985.64,-122.11C985.64,-122.11 985.64,-140.99 985.64,-140.99"/>
<polygon fill="black" stroke="black" points="982.14,-140.99 985.64,-150.99 989.14,-140.99 982.14,-140.99"/>
</g>
<!-- SafeHtmlPipe -->
<g id="node8" class="node">
<title>SafeHtmlPipe</title>
<polygon fill="#ffffb3" stroke="black" points="815.04,-122 720.96,-122 720.96,-86 815.04,-86 815.04,-122"/>
<text text-anchor="middle" x="768" y="-99.8" font-family="Times,serif" font-size="14.00">SafeHtmlPipe</text>
</g>
<!-- SafeHtmlPipe&#45;&gt;SharedModule -->
<g id="edge8" class="edge">
<title>SafeHtmlPipe&#45;&gt;SharedModule</title>
<path fill="none" stroke="black" d="M806.6,-122.05C806.6,-136.37 806.6,-154 806.6,-154 806.6,-154 964.67,-154 964.67,-154"/>
<polygon fill="black" stroke="black" points="964.67,-157.5 974.67,-154 964.67,-150.5 964.67,-157.5"/>
</g>
<!-- SearchBarComponent -->
<g id="node9" class="node">
<title>SearchBarComponent</title>
<polygon fill="#ffffb3" stroke="black" points="702.63,-122 563.37,-122 563.37,-86 702.63,-86 702.63,-122"/>
<text text-anchor="middle" x="633" y="-99.8" font-family="Times,serif" font-size="14.00">SearchBarComponent</text>
</g>
<!-- SearchBarComponent&#45;&gt;SharedModule -->
<g id="edge9" class="edge">
<title>SearchBarComponent&#45;&gt;SharedModule</title>
<path fill="none" stroke="black" d="M658.29,-122.24C658.29,-137.57 658.29,-157 658.29,-157 658.29,-157 964.68,-157 964.68,-157"/>
<polygon fill="black" stroke="black" points="964.68,-160.5 974.68,-157 964.68,-153.5 964.68,-160.5"/>
</g>
<!-- SenderInfoComponent -->
<g id="node10" class="node">
<title>SenderInfoComponent</title>
<polygon fill="#ffffb3" stroke="black" points="544.53,-122 401.47,-122 401.47,-86 544.53,-86 544.53,-122"/>
<text text-anchor="middle" x="473" y="-99.8" font-family="Times,serif" font-size="14.00">SenderInfoComponent</text>
</g>
<!-- SenderInfoComponent&#45;&gt;SharedModule -->
<g id="edge10" class="edge">
<title>SenderInfoComponent&#45;&gt;SharedModule</title>
<path fill="none" stroke="black" d="M521.37,-122.03C521.37,-138.4 521.37,-160 521.37,-160 521.37,-160 964.43,-160 964.43,-160"/>
<polygon fill="black" stroke="black" points="964.43,-163.5 974.43,-160 964.43,-156.5 964.43,-163.5"/>
</g>
<!-- SuccessComponent -->
<g id="node11" class="node">
<title>SuccessComponent</title>
<polygon fill="#ffffb3" stroke="black" points="382.65,-122 257.35,-122 257.35,-86 382.65,-86 382.65,-122"/>
<text text-anchor="middle" x="320" y="-99.8" font-family="Times,serif" font-size="14.00">SuccessComponent</text>
</g>
<!-- SuccessComponent&#45;&gt;SharedModule -->
<g id="edge11" class="edge">
<title>SuccessComponent&#45;&gt;SharedModule</title>
<path fill="none" stroke="black" d="M359.63,-122.02C359.63,-139.37 359.63,-163 359.63,-163 359.63,-163 964.61,-163 964.61,-163"/>
<polygon fill="black" stroke="black" points="964.61,-166.5 974.61,-163 964.61,-159.5 964.61,-166.5"/>
</g>
<!-- BeginningButtonComponent  -->
<g id="node14" class="node">
<title>BeginningButtonComponent </title>
<polygon fill="#fb8072" stroke="black" points="1971.78,-252 1790.22,-252 1790.22,-216 1971.78,-216 1971.78,-252"/>
<text text-anchor="middle" x="1881" y="-229.8" font-family="Times,serif" font-size="14.00">BeginningButtonComponent </text>
</g>
<!-- SharedModule&#45;&gt;BeginningButtonComponent  -->
<g id="edge13" class="edge">
<title>SharedModule&#45;&gt;BeginningButtonComponent </title>
<path fill="none" stroke="black" stroke-dasharray="5,2" d="M1073.35,-169C1251.74,-169 1852.62,-169 1852.62,-169 1852.62,-169 1852.62,-205.89 1852.62,-205.89"/>
<polygon fill="black" stroke="black" points="1849.13,-205.89 1852.62,-215.89 1856.13,-205.89 1849.13,-205.89"/>
</g>
<!-- EditorComponent  -->
<g id="node15" class="node">
<title>EditorComponent </title>
<polygon fill="#fb8072" stroke="black" points="1771.83,-252 1652.17,-252 1652.17,-216 1771.83,-216 1771.83,-252"/>
<text text-anchor="middle" x="1712" y="-229.8" font-family="Times,serif" font-size="14.00">EditorComponent </text>
</g>
<!-- SharedModule&#45;&gt;EditorComponent  -->
<g id="edge14" class="edge">
<title>SharedModule&#45;&gt;EditorComponent </title>
<path fill="none" stroke="black" stroke-dasharray="5,2" d="M1073.46,-172C1227.06,-172 1685.62,-172 1685.62,-172 1685.62,-172 1685.62,-205.73 1685.62,-205.73"/>
<polygon fill="black" stroke="black" points="1682.13,-205.73 1685.62,-215.73 1689.13,-205.73 1682.13,-205.73"/>
</g>
<!-- ErrorComponent  -->
<g id="node16" class="node">
<title>ErrorComponent </title>
<polygon fill="#fb8072" stroke="black" points="1634.37,-252 1519.63,-252 1519.63,-216 1634.37,-216 1634.37,-252"/>
<text text-anchor="middle" x="1577" y="-229.8" font-family="Times,serif" font-size="14.00">ErrorComponent </text>
</g>
<!-- SharedModule&#45;&gt;ErrorComponent  -->
<g id="edge15" class="edge">
<title>SharedModule&#45;&gt;ErrorComponent </title>
<path fill="none" stroke="black" stroke-dasharray="5,2" d="M1073.68,-175C1205.15,-175 1552.12,-175 1552.12,-175 1552.12,-175 1552.12,-205.98 1552.12,-205.98"/>
<polygon fill="black" stroke="black" points="1548.63,-205.98 1552.12,-215.98 1555.63,-205.98 1548.63,-205.98"/>
</g>
<!-- FilesizeModule  -->
<g id="node17" class="node">
<title>FilesizeModule </title>
<polygon fill="#fb8072" stroke="black" points="1502.09,-252 1395.91,-252 1395.91,-216 1502.09,-216 1502.09,-252"/>
<text text-anchor="middle" x="1449" y="-229.8" font-family="Times,serif" font-size="14.00">FilesizeModule </text>
</g>
<!-- SharedModule&#45;&gt;FilesizeModule  -->
<g id="edge16" class="edge">
<title>SharedModule&#45;&gt;FilesizeModule </title>
<path fill="none" stroke="black" stroke-dasharray="5,2" d="M1073.27,-178C1180.57,-178 1425.82,-178 1425.82,-178 1425.82,-178 1425.82,-205.97 1425.82,-205.97"/>
<polygon fill="black" stroke="black" points="1422.32,-205.97 1425.82,-215.97 1429.32,-205.97 1422.32,-205.97"/>
</g>
<!-- HeadlineComponent  -->
<g id="node18" class="node">
<title>HeadlineComponent </title>
<polygon fill="#fb8072" stroke="black" points="1377.86,-252 1242.14,-252 1242.14,-216 1377.86,-216 1377.86,-252"/>
<text text-anchor="middle" x="1310" y="-229.8" font-family="Times,serif" font-size="14.00">HeadlineComponent </text>
</g>
<!-- SharedModule&#45;&gt;HeadlineComponent  -->
<g id="edge17" class="edge">
<title>SharedModule&#45;&gt;HeadlineComponent </title>
<path fill="none" stroke="black" stroke-dasharray="5,2" d="M1073.44,-181C1146.38,-181 1274.27,-181 1274.27,-181 1274.27,-181 1274.27,-205.76 1274.27,-205.76"/>
<polygon fill="black" stroke="black" points="1270.77,-205.76 1274.27,-215.76 1277.77,-205.76 1270.77,-205.76"/>
</g>
<!-- MaterialModule  -->
<g id="node19" class="node">
<title>MaterialModule </title>
<polygon fill="#fb8072" stroke="black" points="1224.47,-252 1113.53,-252 1113.53,-216 1224.47,-216 1224.47,-252"/>
<text text-anchor="middle" x="1169" y="-229.8" font-family="Times,serif" font-size="14.00">MaterialModule </text>
</g>
<!-- SharedModule&#45;&gt;MaterialModule  -->
<g id="edge18" class="edge">
<title>SharedModule&#45;&gt;MaterialModule </title>
<path fill="none" stroke="black" stroke-dasharray="5,2" d="M1073.22,-184C1101.13,-184 1130.54,-184 1130.54,-184 1130.54,-184 1130.54,-205.95 1130.54,-205.95"/>
<polygon fill="black" stroke="black" points="1127.04,-205.95 1130.54,-215.95 1134.04,-205.95 1127.04,-205.95"/>
</g>
<!-- MenuLinkComponent  -->
<g id="node20" class="node">
<title>MenuLinkComponent </title>
<polygon fill="#fb8072" stroke="black" points="1095.93,-252 952.07,-252 952.07,-216 1095.93,-216 1095.93,-252"/>
<text text-anchor="middle" x="1024" y="-229.8" font-family="Times,serif" font-size="14.00">MenuLinkComponent </text>
</g>
<!-- SharedModule&#45;&gt;MenuLinkComponent  -->
<g id="edge19" class="edge">
<title>SharedModule&#45;&gt;MenuLinkComponent </title>
<path fill="none" stroke="black" stroke-dasharray="5,2" d="M1024,-187.11C1024,-187.11 1024,-205.99 1024,-205.99"/>
<polygon fill="black" stroke="black" points="1020.5,-205.99 1024,-215.99 1027.5,-205.99 1020.5,-205.99"/>
</g>
<!-- MenuSrcComponent  -->
<g id="node21" class="node">
<title>MenuSrcComponent </title>
<polygon fill="#fb8072" stroke="black" points="934.15,-252 797.85,-252 797.85,-216 934.15,-216 934.15,-252"/>
<text text-anchor="middle" x="866" y="-229.8" font-family="Times,serif" font-size="14.00">MenuSrcComponent </text>
</g>
<!-- SharedModule&#45;&gt;MenuSrcComponent  -->
<g id="edge20" class="edge">
<title>SharedModule&#45;&gt;MenuSrcComponent </title>
<path fill="none" stroke="black" stroke-dasharray="5,2" d="M974.57,-184C934.2,-184 883.8,-184 883.8,-184 883.8,-184 883.8,-205.95 883.8,-205.95"/>
<polygon fill="black" stroke="black" points="880.3,-205.95 883.8,-215.95 887.3,-205.95 880.3,-205.95"/>
</g>
<!-- RefreshDialogComponent  -->
<g id="node22" class="node">
<title>RefreshDialogComponent </title>
<polygon fill="#fb8072" stroke="black" points="780.47,-252 613.53,-252 613.53,-216 780.47,-216 780.47,-252"/>
<text text-anchor="middle" x="697" y="-229.8" font-family="Times,serif" font-size="14.00">RefreshDialogComponent </text>
</g>
<!-- SharedModule&#45;&gt;RefreshDialogComponent  -->
<g id="edge21" class="edge">
<title>SharedModule&#45;&gt;RefreshDialogComponent </title>
<path fill="none" stroke="black" stroke-dasharray="5,2" d="M974.78,-181C896.04,-181 750.48,-181 750.48,-181 750.48,-181 750.48,-205.76 750.48,-205.76"/>
<polygon fill="black" stroke="black" points="746.98,-205.76 750.48,-215.76 753.98,-205.76 746.98,-205.76"/>
</g>
<!-- SafeHtmlPipe  -->
<g id="node23" class="node">
<title>SafeHtmlPipe </title>
<polygon fill="#fb8072" stroke="black" points="596.04,-252 497.96,-252 497.96,-216 596.04,-216 596.04,-252"/>
<text text-anchor="middle" x="547" y="-229.8" font-family="Times,serif" font-size="14.00">SafeHtmlPipe </text>
</g>
<!-- SharedModule&#45;&gt;SafeHtmlPipe  -->
<g id="edge22" class="edge">
<title>SharedModule&#45;&gt;SafeHtmlPipe </title>
<path fill="none" stroke="black" stroke-dasharray="5,2" d="M974.74,-178C859.04,-178 579.6,-178 579.6,-178 579.6,-178 579.6,-205.97 579.6,-205.97"/>
<polygon fill="black" stroke="black" points="576.1,-205.97 579.6,-215.97 583.1,-205.97 576.1,-205.97"/>
</g>
<!-- SearchBarComponent  -->
<g id="node24" class="node">
<title>SearchBarComponent </title>
<polygon fill="#fb8072" stroke="black" points="479.63,-252 336.37,-252 336.37,-216 479.63,-216 479.63,-252"/>
<text text-anchor="middle" x="408" y="-229.8" font-family="Times,serif" font-size="14.00">SearchBarComponent </text>
</g>
<!-- SharedModule&#45;&gt;SearchBarComponent  -->
<g id="edge23" class="edge">
<title>SharedModule&#45;&gt;SearchBarComponent </title>
<path fill="none" stroke="black" stroke-dasharray="5,2" d="M974.75,-175C834.05,-175 440.4,-175 440.4,-175 440.4,-175 440.4,-205.98 440.4,-205.98"/>
<polygon fill="black" stroke="black" points="436.9,-205.98 440.4,-215.98 443.9,-205.98 436.9,-205.98"/>
</g>
<!-- SenderInfoComponent  -->
<g id="node25" class="node">
<title>SenderInfoComponent </title>
<polygon fill="#fb8072" stroke="black" points="318.53,-252 171.47,-252 171.47,-216 318.53,-216 318.53,-252"/>
<text text-anchor="middle" x="245" y="-229.8" font-family="Times,serif" font-size="14.00">SenderInfoComponent </text>
</g>
<!-- SharedModule&#45;&gt;SenderInfoComponent  -->
<g id="edge24" class="edge">
<title>SharedModule&#45;&gt;SenderInfoComponent </title>
<path fill="none" stroke="black" stroke-dasharray="5,2" d="M974.56,-172C809.5,-172 287.84,-172 287.84,-172 287.84,-172 287.84,-205.73 287.84,-205.73"/>
<polygon fill="black" stroke="black" points="284.34,-205.73 287.84,-215.73 291.34,-205.73 284.34,-205.73"/>
</g>
<!-- SuccessComponent  -->
<g id="node26" class="node">
<title>SuccessComponent </title>
<polygon fill="#fb8072" stroke="black" points="153.65,-252 24.35,-252 24.35,-216 153.65,-216 153.65,-252"/>
<text text-anchor="middle" x="89" y="-229.8" font-family="Times,serif" font-size="14.00">SuccessComponent </text>
</g>
<!-- SharedModule&#45;&gt;SuccessComponent  -->
<g id="edge25" class="edge">
<title>SharedModule&#45;&gt;SuccessComponent </title>
<path fill="none" stroke="black" stroke-dasharray="5,2" d="M974.58,-169C788.42,-169 140.04,-169 140.04,-169 140.04,-169 140.04,-205.89 140.04,-205.89"/>
<polygon fill="black" stroke="black" points="136.54,-205.89 140.04,-215.89 143.54,-205.89 136.54,-205.89"/>
</g>
<!-- MaterialModule -->
<g id="node13" class="node">
<title>MaterialModule</title>
<polygon fill="#8dd3c7" stroke="black" points="233.47,-122 230.47,-126 209.47,-126 206.47,-122 126.53,-122 126.53,-86 233.47,-86 233.47,-122"/>
<text text-anchor="middle" x="180" y="-99.8" font-family="Times,serif" font-size="14.00">MaterialModule</text>
</g>
<!-- MaterialModule&#45;&gt;SharedModule -->
<g id="edge12" class="edge">
<title>MaterialModule&#45;&gt;SharedModule</title>
<path fill="none" stroke="black" d="M202.49,-122.27C202.49,-140.56 202.49,-166 202.49,-166 202.49,-166 964.77,-166 964.77,-166"/>
<polygon fill="black" stroke="black" points="964.77,-169.5 974.77,-166 964.77,-162.5 964.77,-169.5"/>
</g>
</g>
</svg>
