<?xml version="1.0" encoding="UTF-8" standalone="no"?>
<!DOCTYPE svg PUBLIC "-//W3C//DTD SVG 1.1//EN"
 "http://www.w3.org/Graphics/SVG/1.1/DTD/svg11.dtd">
<!-- Generated by graphviz version 2.47.0 (20210316.0004)
 -->
<!-- Title: dependencies Pages: 1 -->
<svg width="726pt" height="211pt"
 viewBox="0.00 0.00 726.00 211.00" xmlns="http://www.w3.org/2000/svg" xmlns:xlink="http://www.w3.org/1999/xlink">
<g id="graph0" class="graph" transform="scale(1 1) rotate(0) translate(4 207)">
<title>dependencies</title>
<polygon fill="white" stroke="transparent" points="-4,4 -4,-207 722,-207 722,4 -4,4"/>
<text text-anchor="start" x="338.01" y="-42.4" font-family="Times-12" font-weight="bold" font-size="14.00">Legend</text>
<polygon fill="#ffffb3" stroke="transparent" points="125,-10 125,-30 145,-30 145,-10 125,-10"/>
<text text-anchor="start" x="148.63" y="-15.4" font-family="Times-12" font-size="14.00"> &#160;Declarations</text>
<polygon fill="#8dd3c7" stroke="transparent" points="238,-10 238,-30 258,-30 258,-10 238,-10"/>
<text text-anchor="start" x="261.73" y="-15.4" font-family="Times-12" font-size="14.00"> &#160;Module</text>
<polygon fill="#80b1d3" stroke="transparent" points="324,-10 324,-30 344,-30 344,-10 324,-10"/>
<text text-anchor="start" x="347.78" y="-15.4" font-family="Times-12" font-size="14.00"> &#160;Bootstrap</text>
<polygon fill="#fdb462" stroke="transparent" points="421,-10 421,-30 441,-30 441,-10 421,-10"/>
<text text-anchor="start" x="444.67" y="-15.4" font-family="Times-12" font-size="14.00"> &#160;Providers</text>
<polygon fill="#fb8072" stroke="transparent" points="517,-10 517,-30 537,-30 537,-10 517,-10"/>
<text text-anchor="start" x="540.73" y="-15.4" font-family="Times-12" font-size="14.00"> &#160;Exports</text>
<g id="clust1" class="cluster">
<title>cluster_UserModule</title>
<polygon fill="none" stroke="black" stroke-dasharray="1,5" points="8,-70 8,-195 710,-195 710,-70 8,-70"/>
</g>
<g id="clust2" class="cluster">
<title>cluster_UserModule_declarations</title>
<polygon fill="none" stroke="black" points="288,-78 288,-130 702,-130 702,-78 288,-78"/>
</g>
<g id="clust6" class="cluster">
<title>cluster_UserModule_imports</title>
<polygon fill="none" stroke="black" points="16,-78 16,-130 280,-130 280,-78 16,-78"/>
</g>
<!-- LoginComponent -->
<g id="node1" class="node">
<title>LoginComponent</title>
<polygon fill="#ffffb3" stroke="black" points="694.28,-122 579.72,-122 579.72,-86 694.28,-86 694.28,-122"/>
<text text-anchor="middle" x="637" y="-99.8" font-family="Times,serif" font-size="14.00">LoginComponent</text>
</g>
<!-- UserModule -->
<g id="node4" class="node">
<title>UserModule</title>
<polygon fill="#8dd3c7" stroke="black" points="402.98,-187 399.98,-191 378.98,-191 375.98,-187 317.02,-187 317.02,-151 402.98,-151 402.98,-187"/>
<text text-anchor="middle" x="360" y="-164.8" font-family="Times,serif" font-size="14.00">UserModule</text>
</g>
<!-- LoginComponent&#45;&gt;UserModule -->
<g id="edge1" class="edge">
<title>LoginComponent&#45;&gt;UserModule</title>
<path fill="none" stroke="black" d="M637,-122.28C637,-143.32 637,-175 637,-175 637,-175 412.98,-175 412.98,-175"/>
<polygon fill="black" stroke="black" points="412.98,-171.5 402.98,-175 412.98,-178.5 412.98,-171.5"/>
</g>
<!-- ProfileComponent -->
<g id="node2" class="node">
<title>ProfileComponent</title>
<polygon fill="#ffffb3" stroke="black" points="561.93,-122 442.07,-122 442.07,-86 561.93,-86 561.93,-122"/>
<text text-anchor="middle" x="502" y="-99.8" font-family="Times,serif" font-size="14.00">ProfileComponent</text>
</g>
<!-- ProfileComponent&#45;&gt;UserModule -->
<g id="edge2" class="edge">
<title>ProfileComponent&#45;&gt;UserModule</title>
<path fill="none" stroke="black" d="M502,-122.02C502,-139.37 502,-163 502,-163 502,-163 412.99,-163 412.99,-163"/>
<polygon fill="black" stroke="black" points="412.99,-159.5 402.99,-163 412.99,-166.5 412.99,-159.5"/>
</g>
<!-- RegisterComponent -->
<g id="node3" class="node">
<title>RegisterComponent</title>
<polygon fill="#ffffb3" stroke="black" points="423.98,-122 296.02,-122 296.02,-86 423.98,-86 423.98,-122"/>
<text text-anchor="middle" x="360" y="-99.8" font-family="Times,serif" font-size="14.00">RegisterComponent</text>
</g>
<!-- RegisterComponent&#45;&gt;UserModule -->
<g id="edge3" class="edge">
<title>RegisterComponent&#45;&gt;UserModule</title>
<path fill="none" stroke="black" d="M360,-122.11C360,-122.11 360,-140.99 360,-140.99"/>
<polygon fill="black" stroke="black" points="356.5,-140.99 360,-150.99 363.5,-140.99 356.5,-140.99"/>
</g>
<!-- SharedModule -->
<g id="node5" class="node">
<title>SharedModule</title>
<polygon fill="#8dd3c7" stroke="black" points="272.42,-122 269.42,-126 248.42,-126 245.42,-122 173.58,-122 173.58,-86 272.42,-86 272.42,-122"/>
<text text-anchor="middle" x="223" y="-99.8" font-family="Times,serif" font-size="14.00">SharedModule</text>
</g>
<!-- SharedModule&#45;&gt;UserModule -->
<g id="edge4" class="edge">
<title>SharedModule&#45;&gt;UserModule</title>
<path fill="none" stroke="black" d="M223,-122.02C223,-139.37 223,-163 223,-163 223,-163 306.65,-163 306.65,-163"/>
<polygon fill="black" stroke="black" points="306.65,-166.5 316.65,-163 306.65,-159.5 306.65,-166.5"/>
</g>
<!-- UserRoutingModule -->
<g id="node6" class="node">
<title>UserRoutingModule</title>
<polygon fill="#8dd3c7" stroke="black" points="155.59,-122 152.59,-126 131.59,-126 128.59,-122 24.41,-122 24.41,-86 155.59,-86 155.59,-122"/>
<text text-anchor="middle" x="90" y="-99.8" font-family="Times,serif" font-size="14.00">UserRoutingModule</text>
</g>
<!-- UserRoutingModule&#45;&gt;UserModule -->
<g id="edge5" class="edge">
<title>UserRoutingModule&#45;&gt;UserModule</title>
<path fill="none" stroke="black" d="M90,-122.28C90,-143.32 90,-175 90,-175 90,-175 306.92,-175 306.92,-175"/>
<polygon fill="black" stroke="black" points="306.92,-178.5 316.92,-175 306.92,-171.5 306.92,-178.5"/>
</g>
</g>
</svg>
