<?xml version="1.0" encoding="UTF-8" standalone="no"?>
<!-- Created with Inkscape (http://www.inkscape.org/) -->

<svg
   width="755.90552"
   height="755.90601"
   viewBox="0 0 200 200.00013"
   version="1.1"
   id="svg5"
   inkscape:version="1.2.1 (9c6d41e4, 2022-07-14)"
   sodipodi:docname="Arkistoitu.svg"
   inkscape:export-filename="Arkistoitu_64.png"
   inkscape:export-xdpi="8.1280003"
   inkscape:export-ydpi="8.1280003"
   xmlns:inkscape="http://www.inkscape.org/namespaces/inkscape"
   xmlns:sodipodi="http://sodipodi.sourceforge.net/DTD/sodipodi-0.dtd"
   xmlns="http://www.w3.org/2000/svg"
   xmlns:svg="http://www.w3.org/2000/svg">
  <sodipodi:namedview
     id="namedview7"
     pagecolor="#ffffff"
     bordercolor="#000000"
     borderopacity="0.25"
     inkscape:showpageshadow="2"
     inkscape:pageopacity="0.0"
     inkscape:pagecheckerboard="0"
     inkscape:deskcolor="#d1d1d1"
     inkscape:document-units="mm"
     showgrid="false"
     inkscape:zoom="0.50538082"
     inkscape:cx="139.49876"
     inkscape:cy="214.68959"
     inkscape:window-width="1440"
     inkscape:window-height="847"
     inkscape:window-x="0"
     inkscape:window-y="25"
     inkscape:window-maximized="1"
     inkscape:current-layer="layer1" />
  <defs
     id="defs2">
    <inkscape:path-effect
       effect="mirror_symmetry"
       start_point="76.620851,12.147464"
       end_point="76.620851,132.45964"
       center_point="76.620851,72.303553"
       id="path-effect2922"
       is_visible="true"
       lpeversion="1.2"
       lpesatellites=""
       mode="vertical"
       discard_orig_path="false"
       fuse_paths="false"
       oposite_fuse="false"
       split_items="false"
       split_open="false"
       link_styles="false" />
    <inkscape:path-effect
       effect="mirror_symmetry"
       start_point="97.883334,-14.506473"
       end_point="97.883334,185.49366"
       center_point="97.883334,85.493592"
       id="path-effect2766"
       is_visible="true"
       lpeversion="1.2"
       lpesatellites=""
       mode="vertical"
       discard_orig_path="false"
       fuse_paths="false"
       oposite_fuse="false"
       split_items="false"
       split_open="false"
       link_styles="false" />
    <inkscape:path-effect
       effect="mirror_symmetry"
       start_point="100,0"
       end_point="100,200.00013"
       center_point="100,100.00007"
       id="path-effect2758"
       is_visible="true"
       lpeversion="1.2"
       lpesatellites=""
       mode="vertical"
       discard_orig_path="false"
       fuse_paths="false"
       oposite_fuse="false"
       split_items="false"
       split_open="false"
       link_styles="false" />
    <inkscape:path-effect
       effect="mirror_symmetry"
       start_point="100,0"
       end_point="100,200"
       center_point="63.404936,51.34914"
       id="path-effect2683"
       is_visible="true"
       lpeversion="1.2"
       lpesatellites=""
       mode="vertical"
       discard_orig_path="false"
       fuse_paths="false"
       oposite_fuse="false"
       split_items="false"
       split_open="false"
       link_styles="false" />
    <inkscape:path-effect
       effect="mirror_symmetry"
       start_point="100.00001,-17.781384"
       end_point="100.00001,204.13579"
       center_point="100.00001,93.177203"
       id="path-effect2681"
       is_visible="true"
       lpeversion="1.2"
       lpesatellites=""
       mode="vertical"
       discard_orig_path="false"
       fuse_paths="false"
       oposite_fuse="false"
       split_items="false"
       split_open="false"
       link_styles="false" />
  </defs>
  <g
     inkscape:label="Taso 1"
     inkscape:groupmode="layer"
     id="layer1">
    <path
       id="path286"
       style="color:#000000;display:inline;fill:#000000;stroke-width:2.58671;stroke-linecap:round;stroke-dasharray:none"
       d="m 44.386664,27.515988 c -13.136412,0 -23.833596,10.697184 -23.833596,23.833596 0,13.136415 10.697184,23.833597 23.833596,23.833597 13.136415,0 23.833597,-10.697182 23.833597,-23.833597 0,-0.577753 -0.02162,-1.150361 -0.06231,-1.717975 l -8.726654,0.492934 c 0.03652,0.419043 0.05629,0.842868 0.05629,1.271637 0,7.950317 -7.164852,15.266202 -15.115169,15.266202 -7.950316,0 -15.266201,-7.315885 -15.266201,-15.266202 0,-7.580865 6.583181,-14.214061 14.017492,-14.772074 L 42.903706,28.199972 H 50.0569 c -1.818288,-0.445878 -3.716937,-0.683984 -5.670236,-0.683984 z m 64.468376,0 c 13.13641,0 23.83359,10.697184 23.83359,23.833596 0,13.136415 -10.69718,23.833597 -23.83359,23.833597 -13.136417,0 -23.833599,-10.697182 -23.833599,-23.833597 0,-0.577753 0.02162,-1.150361 0.06231,-1.717975 l 8.726654,0.492934 c -0.03652,0.419043 -0.05629,0.842868 -0.05629,1.271637 0,7.950317 7.164855,15.266202 15.115165,15.266202 7.95032,0 15.26621,-7.315885 15.26621,-15.266202 0,-7.580865 -6.58319,-14.214061 -14.0175,-14.772074 l 0.22001,-8.424134 h -7.1532 c 1.81829,-0.445878 3.71694,-0.683984 5.67024,-0.683984 z"
       transform="matrix(1.6623432,0,0,1.6623432,-27.37015,-20.193255)"
       sodipodi:nodetypes="ssssccssscccs"
       inkscape:original-d="m 44.386664,27.515988 c -13.136412,0 -23.833596,10.697184 -23.833596,23.833596 0,13.136415 10.697184,23.833597 23.833596,23.833597 13.136415,0 23.833597,-10.697182 23.833597,-23.833597 0,-0.577753 -0.02162,-1.150361 -0.06231,-1.717975 l -8.726654,0.492934 c 0.03652,0.419043 0.05629,0.842868 0.05629,1.271637 0,7.950317 -7.164852,15.266202 -15.115169,15.266202 -7.950316,0 -15.266201,-7.315885 -15.266201,-15.266202 0,-7.580865 6.583181,-14.214061 14.017492,-14.772074 L 42.903706,28.199972 H 50.0569 c -1.818288,-0.445878 -3.716937,-0.683984 -5.670236,-0.683984 z"
       inkscape:path-effect="#path-effect2922"
       class="UnoptimicedTransforms" />
    <path
       style="fill:none;fill-opacity:1;stroke:#000000;stroke-width:15.7805;stroke-linecap:round;stroke-dasharray:none"
       d="M 51.371161,90.269142 V 161.00894 M 148.62885,90.269142 v 70.739798"
       id="path1150"
       inkscape:path-effect="#path-effect2681"
       inkscape:original-d="M 51.371161,90.269142 V 161.00894"
       class="UnoptimicedTransforms"
       transform="matrix(1.0025426,0,0,0.90123773,-0.25426445,16.025254)"
       sodipodi:nodetypes="cc" />
    <path
       style="fill:none;fill-opacity:1;stroke:#000000;stroke-width:15.066;stroke-linecap:butt;stroke-dasharray:none"
       d="M 43.070695,33.209151 H 156.26516"
       id="path2677"
       sodipodi:nodetypes="cc" />
    <circle
       id="path2734"
       style="fill:#000000;stroke:#000000;stroke-width:0.264583"
       cx="51.359848"
       cy="161.15306"
       r="0.7741335" />
    <path
       style="fill:none;fill-opacity:1;stroke:#000000;stroke-width:15;stroke-linecap:round;stroke-dasharray:none"
       d="m 72.496544,120.14686 v 39.14132 m 55.006916,-39.14132 v 39.14132"
       id="path2754"
       inkscape:original-d="m 72.496544,120.14686 v 39.14132"
       inkscape:path-effect="#path-effect2758"
       class="UnoptimicedTransforms" />
    <path
       style="fill:none;fill-opacity:1;stroke:#000000;stroke-width:15;stroke-linecap:round;stroke-dasharray:none"
       d="M 100,87.812717 V 160.64962"
       id="path2756"
       sodipodi:nodetypes="cc" />
    <path
       style="fill:none;fill-opacity:1;stroke:#000000;stroke-width:15;stroke-linecap:round;stroke-dasharray:none"
       id="path2764"
       d="m 52.755703,51.053902 c 0,4.699382 -3.809602,8.508983 -8.508984,8.508983 -4.699382,0 -8.508983,-3.809601 -8.508983,-8.508983 0,-4.699382 3.809601,-8.508984 8.508983,-8.508984 4.699382,0 8.508984,3.809602 8.508984,8.508984 z m 90.255257,0 c 0,4.699382 3.80961,8.508983 8.50899,8.508983 4.69938,0 8.50898,-3.809601 8.50898,-8.508983 0,-4.699382 -3.8096,-8.508984 -8.50898,-8.508984 -4.69938,0 -8.50899,3.809602 -8.50899,8.508984 z"
       sodipodi:type="arc"
       sodipodi:ry="8.5089836"
       sodipodi:rx="8.5089836"
       sodipodi:cy="51.053902"
       sodipodi:cx="44.246719"
       inkscape:path-effect="#path-effect2766"
       class="UnoptimicedTransforms"
       transform="translate(2.1166668,14.506473)" />
    <path
       style="fill:none;fill-opacity:1;stroke:#000000;stroke-width:15;stroke-linecap:round;stroke-dasharray:none"
       d="M 78.971869,64.363859 H 121.00168"
       id="path2768"
       sodipodi:nodetypes="cc" />
  </g>
</svg>
