<?xml version="1.0" encoding="UTF-8" standalone="no"?>
<!-- Created with Inkscape (http://www.inkscape.org/) -->

<svg
   width="200mm"
   height="200mm"
   viewBox="0 0 200 200"
   version="1.1"
   id="svg5"
   inkscape:version="1.2.1 (9c6d41e4, 2022-07-14)"
   sodipodi:docname="Ehdotus.svg"
   inkscape:export-filename="Kysymys_64.png"
   inkscape:export-xdpi="8.1280003"
   inkscape:export-ydpi="8.1280003"
   xmlns:inkscape="http://www.inkscape.org/namespaces/inkscape"
   xmlns:sodipodi="http://sodipodi.sourceforge.net/DTD/sodipodi-0.dtd"
   xmlns="http://www.w3.org/2000/svg"
   xmlns:svg="http://www.w3.org/2000/svg">
  <sodipodi:namedview
     id="namedview7"
     pagecolor="#ffffff"
     bordercolor="#000000"
     borderopacity="0.25"
     inkscape:showpageshadow="2"
     inkscape:pageopacity="0.0"
     inkscape:pagecheckerboard="0"
     inkscape:deskcolor="#d1d1d1"
     inkscape:document-units="mm"
     showgrid="false"
     inkscape:zoom="1.0612231"
     inkscape:cx="271.38496"
     inkscape:cy="419.79861"
     inkscape:window-width="1440"
     inkscape:window-height="847"
     inkscape:window-x="0"
     inkscape:window-y="25"
     inkscape:window-maximized="1"
     inkscape:current-layer="layer1" />
  <defs
     id="defs2" />
  <g
     inkscape:label="Taso 1"
     inkscape:groupmode="layer"
     id="layer1">
    <path
       id="path234"
       style="fill:none;stroke:#000000;stroke-width:15;stroke-linecap:square;stroke-dasharray:none"
       d="m 102.37767,37.43368 a 82.000618,61.743473 0 0 0 -82.00068,61.74369 82.000618,61.743473 0 0 0 15.461258,36.03117 c -4.371891,10.06851 -10.213981,23.97212 -10.025764,24.14736 0.224857,0.20936 25.68067,-3.73098 37.845783,-5.76957 a 82.000618,61.743473 0 0 0 38.719403,7.33419 82.000618,61.743473 0 0 0 82.00068,-61.74315 82.000618,61.743473 0 0 0 -82.00068,-61.74369 z" />
    <path
       style="fill:#000000;stroke:#000000;stroke-width:9.8316;stroke-linecap:round;stroke-dasharray:none;stroke-dashoffset:0"
       id="path15392"
       d="m 135.7647,65.730789 c -1.98658,2.564425 -2.137,2.800657 -4.65142,5.773859 -1.31194,1.551313 -2.67265,3.06516 -3.98695,4.614672 -1.88947,2.2276 -3.74637,4.479846 -5.62411,6.716343 -2.49897,2.976425 -10.40796,12.363955 -12.93743,15.367035 -1.99941,2.485062 -4.01125,4.961182 -5.9982,7.455212 -4.066402,5.10417 -5.683072,7.11761 -9.347476,12.23572 -2.565202,3.58282 -4.954943,7.26181 -7.285674,10.98337 -0.960431,1.59205 -1.905711,3.19491 -2.787509,4.82789 0.02648,-0.78484 1.985249,1.56775 1.676873,0.66074 -0.03978,-0.11688 -0.07111,-0.23722 -0.125475,-0.34867 -0.167076,-0.34237 -0.355842,-0.67485 -0.537774,-1.01036 -0.294808,-0.54368 -0.594945,-1.08475 -0.892412,-1.62712 -2.40564,-4.23917 -4.530169,-8.62647 -7.136087,-12.76294 -0.618713,-0.98209 -1.285204,-1.93645 -1.927805,-2.90468 -2.479651,-3.60265 -5.065388,-7.14886 -7.875907,-10.52847 l -1.687682,-0.68157 v 0 c 2.999903,3.37255 5.709617,6.97391 8.255722,10.66339 0.63024,0.96071 1.281935,1.90907 1.890721,2.88214 2.560662,4.09289 4.683524,8.41315 6.926051,12.66474 0.261134,0.52559 0.52772,1.0488 0.783409,1.5768 0.150573,0.31094 0.299967,0.62264 0.435286,0.93981 0.0441,0.1033 0.07217,0.21219 0.102123,0.31995 0.0135,0.0486 -0.01582,0.11996 0.02785,0.14839 1.713927,1.1152 1.333481,1.51469 1.823534,0.92614 0.173375,-0.59915 0.468679,-1.18656 0.726097,-1.75285 0.77389,-1.70251 0.613324,-1.32814 1.604392,-3.29496 1.490566,-2.7397 1.950909,-3.6566 3.704462,-6.51861 5.302493,-8.65429 11.483791,-16.7789 17.941771,-24.68625 2.13381,-2.546709 4.23621,-5.117351 6.40143,-7.64012 5.8385,-6.802615 6.84804,-7.786185 12.71269,-14.127063 2.40704,-2.602521 5.02709,-5.477677 7.52892,-8.034043 0.62964,-0.643349 1.29188,-1.25729 1.93784,-1.885938 -0.559,-0.317518 -1.11856,-0.63511 -1.67726,-0.952557 z"
       sodipodi:nodetypes="cssscssccccscscccscscsssccscscssscc" />
  </g>
</svg>
