<?xml version="1.0" encoding="UTF-8" standalone="no"?>
<!-- Created with Inkscape (http://www.inkscape.org/) -->

<svg
   width="200mm"
   height="200mm"
   viewBox="0 0 200 200"
   version="1.1"
   id="svg5"
   inkscape:version="1.2.1 (9c6d41e4, 2022-07-14)"
   sodipodi:docname="Kysymys.svg"
   inkscape:export-filename="Kysymys_64.png"
   inkscape:export-xdpi="8.1280003"
   inkscape:export-ydpi="8.1280003"
   xmlns:inkscape="http://www.inkscape.org/namespaces/inkscape"
   xmlns:sodipodi="http://sodipodi.sourceforge.net/DTD/sodipodi-0.dtd"
   xmlns="http://www.w3.org/2000/svg"
   xmlns:svg="http://www.w3.org/2000/svg">
  <sodipodi:namedview
     id="namedview7"
     pagecolor="#ffffff"
     bordercolor="#000000"
     borderopacity="0.25"
     inkscape:showpageshadow="2"
     inkscape:pageopacity="0.0"
     inkscape:pagecheckerboard="0"
     inkscape:deskcolor="#d1d1d1"
     inkscape:document-units="mm"
     showgrid="false"
     inkscape:zoom="0.67234777"
     inkscape:cx="284.82284"
     inkscape:cy="449.91597"
     inkscape:window-width="1440"
     inkscape:window-height="847"
     inkscape:window-x="0"
     inkscape:window-y="25"
     inkscape:window-maximized="1"
     inkscape:current-layer="layer1" />
  <defs
     id="defs2" />
  <g
     inkscape:label="Taso 1"
     inkscape:groupmode="layer"
     id="layer1">
    <path
       id="path234"
       style="fill:none;stroke:#000000;stroke-width:15;stroke-linecap:square;stroke-dasharray:none"
       d="m 102.37767,37.43368 a 82.000618,61.743473 0 0 0 -82.00068,61.74369 82.000618,61.743473 0 0 0 15.461258,36.03117 c -4.371891,10.06851 -10.213981,23.97212 -10.025764,24.14736 0.224857,0.20936 25.68067,-3.73098 37.845783,-5.76957 a 82.000618,61.743473 0 0 0 38.719403,7.33419 82.000618,61.743473 0 0 0 82.00068,-61.74315 82.000618,61.743473 0 0 0 -82.00068,-61.74369 z" />
    <path
       d="m 111.55609,119.66399 c -4.21661,-0.90222 -8.47071,-1.37212 -12.869163,-4.73754 -4.025534,-3.08007 -1.300231,-6.28227 -0.513024,-8.14143 0.932173,-2.20146 2.158147,-4.15933 3.649237,-5.88585 1.4911,-1.726518 3.06065,-3.335319 4.70869,-4.826403 1.72654,-1.491085 0.62408,-0.570579 2.11516,-1.983182 1.49111,-1.412604 2.7075,-2.903688 3.64924,-4.473266 0.94173,-1.569558 1.41261,-3.335317 1.41261,-5.297269 0,-3.296084 -1.33413,-5.964343 -4.00238,-8.004776 -2.66827,-2.040432 -7.25575,-5.026314 -11.729014,-5.026314 -4.316303,0 -5.23642,0.445875 -8.454021,2.015437 -3.139132,1.569564 -4.335956,4.179233 -7.667138,6.091074 0,0 -6.132059,2.104826 -7.335644,1.354716 C 72.62186,79.565823 72.01335,75.09098 72.01335,75.09098 c 0.406854,-6.602981 6.697983,-10.527207 12.034495,-13.038508 5.336524,-2.58978 11.653999,-3.884671 18.952475,-3.884671 5.72891,0 10.7515,0.86326 15.06782,2.589781 4.3163,1.648042 7.69084,4.080863 10.12368,7.298468 2.43283,3.139128 3.64923,6.984557 3.64923,11.53629 0,3.139129 -0.51009,5.885869 -1.53032,8.240218 -0.94174,2.354339 -2.1974,4.434016 -3.76696,6.239014 -1.49109,1.726516 -3.09987,3.374563 -4.8264,4.944129 -1.72654,1.491079 -3.37458,2.982149 -4.94413,4.473239 -1.4911,1.4911 -2.70749,3.09988 -3.64923,4.82642 -0.94174,1.72651 -1.41262,3.76694 -1.41262,6.12129 0.063,3.40931 2.02227,5.88205 -0.15525,5.22734 z m -5.89858,21.46044 c -2.13319,0.0163 -3.9325,-0.55369 -5.39556,-1.94231 -1.391542,-1.40017 -2.098628,-3.1887 -2.112312,-5.33312 -0.01392,-2.14443 0.664949,-3.97371 2.050692,-5.41943 1.44872,-1.51144 3.28221,-2.23578 5.4658,-2.25208 2.18357,-0.0163 3.94307,0.71503 5.24278,2.25245 1.31067,1.46426 1.93658,3.27389 1.95053,5.37572 0.0139,2.10186 -0.61524,3.86771 -1.95649,5.28226 -1.34126,1.41458 -3.11228,2.02001 -5.24544,2.03651 z"
       id="path8555"
       sodipodi:nodetypes="sssscsssssccsccsccsccccsccscssscsssc"
       style="font-weight:600;font-size:50.8px;font-family:Montserrat;-inkscape-font-specification:'Montserrat Semi-Bold';stroke:#000000;stroke-width:4.90489;stroke-opacity:1" />
  </g>
</svg>
