<?xml version="1.0" encoding="UTF-8" standalone="no"?>
<!-- Created with Inkscape (http://www.inkscape.org/) -->

<svg
   width="200mm"
   height="200mm"
   viewBox="0 0 200 200"
   version="1.1"
   id="svg14313"
   inkscape:version="1.2.1 (9c6d41e4, 2022-07-14)"
   sodipodi:docname="Tick.svg"
   inkscape:export-filename="Ratkaisu.png"
   inkscape:export-xdpi="96"
   inkscape:export-ydpi="96"
   xmlns:inkscape="http://www.inkscape.org/namespaces/inkscape"
   xmlns:sodipodi="http://sodipodi.sourceforge.net/DTD/sodipodi-0.dtd"
   xmlns="http://www.w3.org/2000/svg"
   xmlns:svg="http://www.w3.org/2000/svg">
  <sodipodi:namedview
     id="namedview14315"
     pagecolor="#ffffff"
     bordercolor="#000000"
     borderopacity="0.25"
     inkscape:showpageshadow="2"
     inkscape:pageopacity="0.0"
     inkscape:pagecheckerboard="0"
     inkscape:deskcolor="#d1d1d1"
     inkscape:document-units="mm"
     showgrid="false"
     inkscape:zoom="0.80018229"
     inkscape:cx="343.04683"
     inkscape:cy="398.0343"
     inkscape:window-width="1440"
     inkscape:window-height="847"
     inkscape:window-x="0"
     inkscape:window-y="25"
     inkscape:window-maximized="1"
     inkscape:current-layer="layer1" />
  <defs
     id="defs14310" />
  <g
     inkscape:label="Taso 1"
     inkscape:groupmode="layer"
     id="layer1">
    <path
       style="fill:#000000;stroke:#000000;stroke-width:20;stroke-linecap:round;stroke-dasharray:none;stroke-dashoffset:0"
       id="path15392"
       d="m 167.50152,27.414108 c -3.93432,5.358453 -4.23219,5.852068 -9.21185,12.064671 -2.59822,3.241522 -5.29302,6.404756 -7.89593,9.64251 -3.74198,4.654648 -7.41948,9.360786 -11.13823,14.034022 -4.94908,6.219355 -20.61238,25.834896 -25.62184,32.10994 -3.95971,5.192639 -7.94407,10.366559 -11.8791,15.577919 -8.053267,10.66532 -11.254977,14.87248 -18.512132,25.56695 -5.080232,7.48645 -9.81297,15.1738 -14.428846,22.95011 -1.902079,3.32667 -3.774158,6.67589 -5.520506,10.08804 0.05235,-1.63994 3.931663,3.27587 3.32095,1.38065 -0.0787,-0.24423 -0.14077,-0.49568 -0.248491,-0.72856 -0.330899,-0.71539 -0.704738,-1.41015 -1.065036,-2.11119 -0.583854,-1.13603 -1.178249,-2.26661 -1.767373,-3.39991 -4.764227,-8.85789 -8.971736,-18.02529 -14.132611,-26.66859 -1.225326,-2.05214 -2.54527,-4.04629 -3.817905,-6.06942 -4.910808,-7.52788 -10.03171,-14.93781 -15.597783,-21.99961 0,0 -3.342354,-1.42416 -3.342354,-1.42416 v 0 c 5.941134,7.04706 11.307564,14.57222 16.34998,22.28149 1.248155,2.00745 2.538798,3.9891 3.744462,6.02236 5.071251,8.55224 9.275458,17.57953 13.716652,26.46338 0.51716,1.09826 1.045103,2.19151 1.551481,3.29479 0.298206,0.64972 0.594078,1.30102 0.862075,1.96377 0.08728,0.21585 0.143088,0.44338 0.202355,0.66854 0.02672,0.10153 -0.03131,0.25065 0.05524,0.31007 3.394351,2.33024 2.640892,3.16501 3.611411,1.9352 0.343357,-1.25196 0.928197,-2.47936 1.437986,-3.66264 1.53265,-3.55744 1.214659,-2.77519 3.177406,-6.88492 2.951981,-5.72471 3.863662,-7.64061 7.33648,-13.62087 10.501283,-18.08343 22.742969,-35.06006 35.532649,-51.58275 4.22587,-5.32143 8.38954,-10.692877 12.67765,-15.964297 11.5628,-14.214284 13.56214,-16.269483 25.17674,-29.518962 4.76703,-5.438054 9.95589,-11.445792 14.91061,-16.787401 1.24693,-1.344299 2.55851,-2.627152 3.83776,-3.94073 0,0 -3.3219,-1.990402 -3.3219,-1.990402 z" />
  </g>
</svg>
