<?xml version="1.0" encoding="UTF-8" standalone="no"?>
<!-- Created with Inkscape (http://www.inkscape.org/) -->

<svg
   width="166.62164mm"
   height="62.103149mm"
   viewBox="0 0 166.62164 62.103149"
   version="1.1"
   id="svg5"
   inkscape:version="1.2.1 (9c6d41e4, 2022-07-14)"
   sodipodi:docname="hex9.svg"
   xmlns:inkscape="http://www.inkscape.org/namespaces/inkscape"
   xmlns:sodipodi="http://sodipodi.sourceforge.net/DTD/sodipodi-0.dtd"
   xmlns="http://www.w3.org/2000/svg"
   xmlns:svg="http://www.w3.org/2000/svg">
  <sodipodi:namedview
     id="namedview7"
     pagecolor="#ffffff"
     bordercolor="#000000"
     borderopacity="0.25"
     inkscape:showpageshadow="2"
     inkscape:pageopacity="0.0"
     inkscape:pagecheckerboard="0"
     inkscape:deskcolor="#d1d1d1"
     inkscape:document-units="mm"
     showgrid="false"
     inkscape:zoom="0.98167323"
     inkscape:cx="284.71796"
     inkscape:cy="180.81373"
     inkscape:window-width="1440"
     inkscape:window-height="847"
     inkscape:window-x="0"
     inkscape:window-y="25"
     inkscape:window-maximized="1"
     inkscape:current-layer="layer1" />
  <defs
     id="defs2" />
  <g
     inkscape:label="Taso 1"
     inkscape:groupmode="layer"
     id="layer1"
     transform="translate(-15.738135,-97)">
    <path
       id="path234-9"
       style="fill:#4b74ff;fill-opacity:1;stroke-width:0.264583"
       inkscape:transform-center-x="0.017635986"
       inkscape:transform-center-y="0.0060178253"
       d="M 104.09852 30.954681 C 103.30385 30.95453 55.031535 58.671074 27.25244 74.891016 L 83.316918 213.47566 L 147.97386 55.863396 C 125.72309 43.010004 104.61878 30.95478 104.09852 30.954681 z M 181.43068 75.308718 L 106.78955 251.67507 C 121.80819 243.49301 199.72869 198.51947 200.23466 197.6455 C 200.79116 196.68426 200.79087 87.528748 200.23466 86.568189 C 200.07875 86.298926 192.22065 81.62959 181.43068 75.308718 z M 7.5742403 127.86154 C 7.5175879 159.21856 7.6462245 196.90882 7.9716116 197.47361 C 8.2079708 197.88388 25.6598 208.12983 45.525978 219.65987 L 7.5742403 127.86154 z "
       transform="matrix(0.27959823,0,0,0.27959823,126.25796,88.345126)" />
    <path
       id="path234-8"
       style="fill:#4b74ff;fill-opacity:1;stroke-width:0.264583"
       inkscape:transform-center-x="0.017635986"
       inkscape:transform-center-y="0.0060178253"
       d="M 104.0992 30.954682 C 103.29465 30.954529 53.755432 59.403854 26.16636 75.524965 L 82.284439 214.24454 L 147.39605 55.528867 C 125.36429 42.804459 104.61489 30.95478 104.0992 30.954682 z M 180.86396 74.976038 L 105.87166 252.17595 C 118.5712 245.36188 199.71747 198.53686 200.2335 197.64551 C 200.79 196.68426 200.78971 87.528751 200.2335 86.568192 C 200.075 86.294464 191.94145 81.462854 180.86396 74.976038 z M 7.5693793 131.1163 C 7.5273051 161.77832 7.6562117 196.92818 7.9704471 197.47362 C 8.1997677 197.87167 24.636152 207.5278 43.750505 218.62856 L 7.5693793 131.1163 z "
       transform="matrix(0.27959822,0,0,0.27959822,70.094272,88.345126)" />
    <path
       id="path234"
       style="fill:#4b74ff;fill-opacity:1;stroke-width:0.264583"
       inkscape:transform-center-x="0.017635986"
       inkscape:transform-center-y="0.0060178253"
       d="M 104.09814 30.954681 C 103.62405 30.954591 85.991215 40.974346 66.05399 52.433065 C 67.867724 53.093683 69.6684 53.794224 71.443454 54.567781 C 83.782781 59.866104 94.487267 66.959046 103.5603 75.846555 C 112.8148 84.563152 120.07389 94.81745 125.33625 106.61049 C 130.59861 118.23262 133.23008 130.45179 133.23008 143.27031 C 133.23008 155.91792 130.59861 168.13893 125.33625 179.93198 C 120.25535 191.55411 113.08834 201.8084 103.83384 210.69591 C 94.760806 219.58342 84.054472 226.67636 71.715145 231.97469 C 70.766834 232.38796 69.801589 232.7562 68.841134 233.13723 C 87.602568 243.93953 103.64614 253.07031 104.09814 253.07049 C 105.20837 253.07092 199.67779 198.60674 200.23428 197.6455 C 200.79078 196.68426 200.79049 87.528748 200.23428 86.568189 C 199.67808 85.607631 105.20841 30.954892 104.09814 30.954681 z M 7.8418575 89.177903 C 7.4254777 105.58004 7.4650612 195.5348 7.9638412 197.36457 L 18.909112 197.36457 C 28.163607 197.36457 36.420782 195.99794 43.67921 193.26332 C 50.937637 190.52871 57.016344 186.7691 61.915783 181.98352 C 66.996682 177.19794 70.806691 171.55761 73.34714 165.06289 C 76.069051 158.39726 77.4299 151.13234 77.4299 143.27031 C 77.4299 135.5792 76.069051 128.40211 73.34714 121.73648 C 70.62523 115.07085 66.724991 109.34453 61.644092 104.55895 C 56.744653 99.773364 50.665946 96.013763 43.407518 93.279145 C 36.149091 90.544526 27.982146 89.177903 18.909112 89.177903 L 7.8418575 89.177903 z "
       transform="matrix(0.27959823,0,0,0.27959823,13.625664,88.345126)" />
  </g>
</svg>
