<?xml version="1.0" encoding="UTF-8" standalone="no"?>
<!-- Created with Inkscape (http://www.inkscape.org/) -->

<svg
   width="166.62164mm"
   height="62.103149mm"
   viewBox="0 0 166.62164 62.103149"
   version="1.1"
   id="svg5"
   inkscape:version="1.2.1 (9c6d41e4, 2022-07-14)"
   sodipodi:docname="Logo valkoinen.svg"
   inkscape:export-filename="Logo sininen.png"
   inkscape:export-xdpi="96"
   inkscape:export-ydpi="96"
   xmlns:inkscape="http://www.inkscape.org/namespaces/inkscape"
   xmlns:sodipodi="http://sodipodi.sourceforge.net/DTD/sodipodi-0.dtd"
   xmlns="http://www.w3.org/2000/svg"
   xmlns:svg="http://www.w3.org/2000/svg">
  <sodipodi:namedview
     id="namedview7"
     pagecolor="#ffffff"
     bordercolor="#000000"
     borderopacity="0.25"
     inkscape:showpageshadow="2"
     inkscape:pageopacity="0.0"
     inkscape:pagecheckerboard="0"
     inkscape:deskcolor="#d1d1d1"
     inkscape:document-units="mm"
     showgrid="false"
     inkscape:zoom="0.98167323"
     inkscape:cx="247.02721"
     inkscape:cy="180.81373"
     inkscape:window-width="1440"
     inkscape:window-height="847"
     inkscape:window-x="0"
     inkscape:window-y="25"
     inkscape:window-maximized="1"
     inkscape:current-layer="layer1" />
  <defs
     id="defs2" />
  <g
     inkscape:label="Taso 1"
     inkscape:groupmode="layer"
     id="layer1"
     transform="translate(-15.738135,-97)">
    <path
       id="path234-9"
       style="fill:#ffffff;fill-opacity:1;stroke-width:0.264583"
       inkscape:transform-center-x="0.017635986"
       inkscape:transform-center-y="0.0060178253"
       d="M 104.09852 30.954681 C 103.30385 30.95453 55.031535 58.671074 27.25244 74.891016 L 83.316918 213.47566 L 147.97386 55.863396 C 125.72309 43.010004 104.61878 30.95478 104.09852 30.954681 z M 181.43068 75.308718 L 106.78955 251.67507 C 121.80819 243.49301 199.72869 198.51947 200.23466 197.6455 C 200.79116 196.68426 200.79087 87.528748 200.23466 86.568189 C 200.07875 86.298926 192.22065 81.62959 181.43068 75.308718 z M 7.5742403 127.86154 C 7.5175879 159.21856 7.6462245 196.90882 7.9716116 197.47361 C 8.2079708 197.88388 25.6598 208.12983 45.525978 219.65987 L 7.5742403 127.86154 z "
       transform="matrix(0.27959823,0,0,0.27959823,126.25796,88.345126)" />
    <path
       id="path234-8"
       style="fill:#ffffff;fill-opacity:1;stroke-width:0.264583"
       inkscape:transform-center-x="0.017635986"
       inkscape:transform-center-y="0.0060178253"
       d="M 104.0992 30.954682 C 103.29465 30.954529 53.755432 59.403854 26.16636 75.524965 L 82.284439 214.24454 L 147.39605 55.528867 C 125.36429 42.804459 104.61489 30.95478 104.0992 30.954682 z M 180.86396 74.976038 L 105.87166 252.17595 C 118.5712 245.36188 199.71747 198.53686 200.2335 197.64551 C 200.79 196.68426 200.78971 87.528751 200.2335 86.568192 C 200.075 86.294464 191.94145 81.462854 180.86396 74.976038 z M 7.5693793 131.1163 C 7.5273051 161.77832 7.6562117 196.92818 7.9704471 197.47362 C 8.1997677 197.87167 24.636152 207.5278 43.750505 218.62856 L 7.5693793 131.1163 z "
       transform="matrix(0.27959822,0,0,0.27959822,70.094272,88.345126)" />
    <path
       id="path234"
       style="fill:#ffffff;fill-opacity:1;stroke-width:0.264583"
       inkscape:transform-center-x="0.017635986"
       inkscape:transform-center-y="0.0060178253"
       d="m 104.09814,30.954681 c -0.47409,-9e-5 -18.106925,10.019665 -38.04415,21.478384 1.813734,0.660618 3.61441,1.361159 5.389464,2.134716 12.339327,5.298323 23.043813,12.391265 32.116846,21.278774 9.2545,8.716597 16.51359,18.970895 21.77595,30.763935 5.26236,11.62213 7.89383,23.8413 7.89383,36.65982 0,12.64761 -2.63147,24.86862 -7.89383,36.66167 -5.0809,11.62213 -12.24791,21.87642 -21.50241,30.76393 -9.073034,8.88751 -19.779368,15.98045 -32.118695,21.27878 -0.948311,0.41327 -1.913556,0.78151 -2.874011,1.16254 18.761434,10.8023 34.805006,19.93308 35.257006,19.93326 1.11023,4.3e-4 95.57965,-54.46375 96.13614,-55.42499 0.5565,-0.96124 0.55621,-110.116752 0,-111.077311 -0.5562,-0.960558 -95.02587,-55.613297 -96.13614,-55.613508 z M 7.8418575,89.177903 C 7.4254777,105.58004 7.4650612,195.5348 7.9638412,197.36457 H 18.909112 c 9.254495,0 17.51167,-1.36663 24.770098,-4.10125 7.258427,-2.73461 13.337134,-6.49422 18.236573,-11.2798 5.080899,-4.78558 8.890908,-10.42591 11.431357,-16.92063 2.721911,-6.66563 4.08276,-13.93055 4.08276,-21.79258 0,-7.69111 -1.360849,-14.8682 -4.08276,-21.53383 C 70.62523,115.07085 66.724991,109.34453 61.644092,104.55895 56.744653,99.773364 50.665946,96.013763 43.407518,93.279145 36.149091,90.544526 27.982146,89.177903 18.909112,89.177903 Z"
       transform="matrix(0.27959823,0,0,0.27959823,13.625664,88.345126)"
       inkscape:highlight-color="#ebf2fd" />
  </g>
</svg>
