<?xml version="1.0" encoding="UTF-8" standalone="no"?>
<!DOCTYPE svg PUBLIC "-//W3C//DTD SVG 1.1//EN"
 "http://www.w3.org/Graphics/SVG/1.1/DTD/svg11.dtd">
<!-- Generated by graphviz version 2.47.0 (20210316.0004)
 -->
<!-- Title: dependencies Pages: 1 -->
<svg width="1010pt" height="284pt"
 viewBox="0.00 0.00 1010.00 284.00" xmlns="http://www.w3.org/2000/svg" xmlns:xlink="http://www.w3.org/1999/xlink">
<g id="graph0" class="graph" transform="scale(1 1) rotate(0) translate(4 280)">
<title>dependencies</title>
<polygon fill="white" stroke="transparent" points="-4,4 -4,-280 1006,-280 1006,4 -4,4"/>
<text text-anchor="start" x="480.01" y="-42.4" font-family="Times-12" font-weight="bold" font-size="14.00">Legend</text>
<polygon fill="#ffffb3" stroke="transparent" points="267,-10 267,-30 287,-30 287,-10 267,-10"/>
<text text-anchor="start" x="290.63" y="-15.4" font-family="Times-12" font-size="14.00"> &#160;Declarations</text>
<polygon fill="#8dd3c7" stroke="transparent" points="380,-10 380,-30 400,-30 400,-10 380,-10"/>
<text text-anchor="start" x="403.73" y="-15.4" font-family="Times-12" font-size="14.00"> &#160;Module</text>
<polygon fill="#80b1d3" stroke="transparent" points="466,-10 466,-30 486,-30 486,-10 466,-10"/>
<text text-anchor="start" x="489.78" y="-15.4" font-family="Times-12" font-size="14.00"> &#160;Bootstrap</text>
<polygon fill="#fdb462" stroke="transparent" points="563,-10 563,-30 583,-30 583,-10 563,-10"/>
<text text-anchor="start" x="586.67" y="-15.4" font-family="Times-12" font-size="14.00"> &#160;Providers</text>
<polygon fill="#fb8072" stroke="transparent" points="659,-10 659,-30 679,-30 679,-10 659,-10"/>
<text text-anchor="start" x="682.73" y="-15.4" font-family="Times-12" font-size="14.00"> &#160;Exports</text>
<g id="clust1" class="cluster">
<title>cluster_AppModule</title>
<polygon fill="none" stroke="black" stroke-dasharray="1,5" points="8,-70 8,-268 994,-268 994,-70 8,-70"/>
</g>
<g id="clust2" class="cluster">
<title>cluster_AppModule_declarations</title>
<polygon fill="none" stroke="black" points="725,-78 725,-130 986,-130 986,-78 725,-78"/>
</g>
<g id="clust5" class="cluster">
<title>cluster_AppModule_imports</title>
<polygon fill="none" stroke="black" points="16,-78 16,-130 717,-130 717,-78 16,-78"/>
</g>
<g id="clust7" class="cluster">
<title>cluster_AppModule_bootstrap</title>
<polygon fill="none" stroke="black" points="401,-208 401,-260 525,-260 525,-208 401,-208"/>
</g>
<!-- AppComponent -->
<g id="node1" class="node">
<title>AppComponent</title>
<polygon fill="#ffffb3" stroke="black" points="977.94,-122 872.06,-122 872.06,-86 977.94,-86 977.94,-122"/>
<text text-anchor="middle" x="925" y="-99.8" font-family="Times,serif" font-size="14.00">AppComponent</text>
</g>
<!-- AppModule -->
<g id="node3" class="node">
<title>AppModule</title>
<polygon fill="#8dd3c7" stroke="black" points="504.66,-187 501.66,-191 480.66,-191 477.66,-187 421.34,-187 421.34,-151 504.66,-151 504.66,-187"/>
<text text-anchor="middle" x="463" y="-164.8" font-family="Times,serif" font-size="14.00">AppModule</text>
</g>
<!-- AppComponent&#45;&gt;AppModule -->
<g id="edge1" class="edge">
<title>AppComponent&#45;&gt;AppModule</title>
<path fill="none" stroke="black" d="M925,-122.29C925,-144.21 925,-178 925,-178 925,-178 514.81,-178 514.81,-178"/>
<polygon fill="black" stroke="black" points="514.81,-174.5 504.81,-178 514.81,-181.5 514.81,-174.5"/>
</g>
<!-- ListingComponent -->
<g id="node2" class="node">
<title>ListingComponent</title>
<polygon fill="#ffffb3" stroke="black" points="854.5,-122 733.5,-122 733.5,-86 854.5,-86 854.5,-122"/>
<text text-anchor="middle" x="794" y="-99.8" font-family="Times,serif" font-size="14.00">ListingComponent</text>
</g>
<!-- ListingComponent&#45;&gt;AppModule -->
<g id="edge2" class="edge">
<title>ListingComponent&#45;&gt;AppModule</title>
<path fill="none" stroke="black" d="M794,-122.11C794,-141.34 794,-169 794,-169 794,-169 514.92,-169 514.92,-169"/>
<polygon fill="black" stroke="black" points="514.92,-165.5 504.92,-169 514.92,-172.5 514.92,-165.5"/>
</g>
<!-- AppComponent  -->
<g id="node10" class="node">
<title>AppComponent </title>
<polygon fill="#80b1d3" stroke="black" points="517.44,-252 408.56,-252 408.56,-216 517.44,-216 517.44,-252"/>
<text text-anchor="middle" x="463" y="-229.8" font-family="Times,serif" font-size="14.00">AppComponent </text>
</g>
<!-- AppModule&#45;&gt;AppComponent  -->
<g id="edge9" class="edge">
<title>AppModule&#45;&gt;AppComponent </title>
<path fill="none" stroke="black" stroke-dasharray="1,5" d="M463,-187.11C463,-187.11 463,-205.99 463,-205.99"/>
<polygon fill="black" stroke="black" points="459.5,-205.99 463,-215.99 466.5,-205.99 459.5,-205.99"/>
</g>
<!-- AppRoutingModule -->
<g id="node4" class="node">
<title>AppRoutingModule</title>
<polygon fill="#8dd3c7" stroke="black" points="709.27,-122 706.27,-126 685.27,-126 682.27,-122 580.73,-122 580.73,-86 709.27,-86 709.27,-122"/>
<text text-anchor="middle" x="645" y="-99.8" font-family="Times,serif" font-size="14.00">AppRoutingModule</text>
</g>
<!-- AppRoutingModule&#45;&gt;AppModule -->
<g id="edge3" class="edge">
<title>AppRoutingModule&#45;&gt;AppModule</title>
<path fill="none" stroke="black" d="M645,-122.03C645,-138.4 645,-160 645,-160 645,-160 514.75,-160 514.75,-160"/>
<polygon fill="black" stroke="black" points="514.75,-156.5 504.75,-160 514.75,-163.5 514.75,-156.5"/>
</g>
<!-- CoreModule -->
<g id="node5" class="node">
<title>CoreModule</title>
<polygon fill="#8dd3c7" stroke="black" points="562.26,-122 559.26,-126 538.26,-126 535.26,-122 475.74,-122 475.74,-86 562.26,-86 562.26,-122"/>
<text text-anchor="middle" x="519" y="-99.8" font-family="Times,serif" font-size="14.00">CoreModule</text>
</g>
<!-- CoreModule&#45;&gt;AppModule -->
<g id="edge4" class="edge">
<title>CoreModule&#45;&gt;AppModule</title>
<path fill="none" stroke="black" d="M490.22,-122.11C490.22,-122.11 490.22,-140.99 490.22,-140.99"/>
<polygon fill="black" stroke="black" points="486.72,-140.99 490.22,-150.99 493.72,-140.99 486.72,-140.99"/>
</g>
<!-- CourseModule -->
<g id="node6" class="node">
<title>CourseModule</title>
<polygon fill="#8dd3c7" stroke="black" points="457.71,-122 454.71,-126 433.71,-126 430.71,-122 358.29,-122 358.29,-86 457.71,-86 457.71,-122"/>
<text text-anchor="middle" x="408" y="-99.8" font-family="Times,serif" font-size="14.00">CourseModule</text>
</g>
<!-- CourseModule&#45;&gt;AppModule -->
<g id="edge5" class="edge">
<title>CourseModule&#45;&gt;AppModule</title>
<path fill="none" stroke="black" d="M439.39,-122.11C439.39,-122.11 439.39,-140.99 439.39,-140.99"/>
<polygon fill="black" stroke="black" points="435.89,-140.99 439.39,-150.99 442.89,-140.99 435.89,-140.99"/>
</g>
<!-- SharedModule -->
<g id="node7" class="node">
<title>SharedModule</title>
<polygon fill="#8dd3c7" stroke="black" points="340.42,-122 337.42,-126 316.42,-126 313.42,-122 241.58,-122 241.58,-86 340.42,-86 340.42,-122"/>
<text text-anchor="middle" x="291" y="-99.8" font-family="Times,serif" font-size="14.00">SharedModule</text>
</g>
<!-- SharedModule&#45;&gt;AppModule -->
<g id="edge6" class="edge">
<title>SharedModule&#45;&gt;AppModule</title>
<path fill="none" stroke="black" d="M291,-122.03C291,-138.4 291,-160 291,-160 291,-160 410.92,-160 410.92,-160"/>
<polygon fill="black" stroke="black" points="410.92,-163.5 420.92,-160 410.92,-156.5 410.92,-163.5"/>
</g>
<!-- TicketModule -->
<g id="node8" class="node">
<title>TicketModule</title>
<polygon fill="#8dd3c7" stroke="black" points="223.81,-122 220.81,-126 199.81,-126 196.81,-122 128.19,-122 128.19,-86 223.81,-86 223.81,-122"/>
<text text-anchor="middle" x="176" y="-99.8" font-family="Times,serif" font-size="14.00">TicketModule</text>
</g>
<!-- TicketModule&#45;&gt;AppModule -->
<g id="edge7" class="edge">
<title>TicketModule&#45;&gt;AppModule</title>
<path fill="none" stroke="black" d="M176,-122.11C176,-141.34 176,-169 176,-169 176,-169 411.27,-169 411.27,-169"/>
<polygon fill="black" stroke="black" points="411.27,-172.5 421.27,-169 411.27,-165.5 411.27,-172.5"/>
</g>
<!-- UserModule -->
<g id="node9" class="node">
<title>UserModule</title>
<polygon fill="#8dd3c7" stroke="black" points="109.98,-122 106.98,-126 85.98,-126 82.98,-122 24.02,-122 24.02,-86 109.98,-86 109.98,-122"/>
<text text-anchor="middle" x="67" y="-99.8" font-family="Times,serif" font-size="14.00">UserModule</text>
</g>
<!-- UserModule&#45;&gt;AppModule -->
<g id="edge8" class="edge">
<title>UserModule&#45;&gt;AppModule</title>
<path fill="none" stroke="black" d="M67,-122.29C67,-144.21 67,-178 67,-178 67,-178 411,-178 411,-178"/>
<polygon fill="black" stroke="black" points="411,-181.5 421,-178 411,-174.5 411,-181.5"/>
</g>
</g>
</svg>
