<?xml version="1.0" encoding="UTF-8" standalone="no"?>
<!DOCTYPE svg PUBLIC "-//W3C//DTD SVG 1.1//EN"
 "http://www.w3.org/Graphics/SVG/1.1/DTD/svg11.dtd">
<!-- Generated by graphviz version 2.47.0 (20210316.0004)
 -->
<!-- Title: dependencies Pages: 1 -->
<svg width="741pt" height="211pt"
 viewBox="0.00 0.00 741.00 211.00" xmlns="http://www.w3.org/2000/svg" xmlns:xlink="http://www.w3.org/1999/xlink">
<g id="graph0" class="graph" transform="scale(1 1) rotate(0) translate(4 207)">
<title>dependencies</title>
<polygon fill="white" stroke="transparent" points="-4,4 -4,-207 737,-207 737,4 -4,4"/>
<text text-anchor="start" x="345.51" y="-42.4" font-family="Times-12" font-weight="bold" font-size="14.00">Legend</text>
<polygon fill="#ffffb3" stroke="transparent" points="132.5,-10 132.5,-30 152.5,-30 152.5,-10 132.5,-10"/>
<text text-anchor="start" x="156.13" y="-15.4" font-family="Times-12" font-size="14.00"> &#160;Declarations</text>
<polygon fill="#8dd3c7" stroke="transparent" points="245.5,-10 245.5,-30 265.5,-30 265.5,-10 245.5,-10"/>
<text text-anchor="start" x="269.23" y="-15.4" font-family="Times-12" font-size="14.00"> &#160;Module</text>
<polygon fill="#80b1d3" stroke="transparent" points="331.5,-10 331.5,-30 351.5,-30 351.5,-10 331.5,-10"/>
<text text-anchor="start" x="355.28" y="-15.4" font-family="Times-12" font-size="14.00"> &#160;Bootstrap</text>
<polygon fill="#fdb462" stroke="transparent" points="428.5,-10 428.5,-30 448.5,-30 448.5,-10 428.5,-10"/>
<text text-anchor="start" x="452.17" y="-15.4" font-family="Times-12" font-size="14.00"> &#160;Providers</text>
<polygon fill="#fb8072" stroke="transparent" points="524.5,-10 524.5,-30 544.5,-30 544.5,-10 524.5,-10"/>
<text text-anchor="start" x="548.23" y="-15.4" font-family="Times-12" font-size="14.00"> &#160;Exports</text>
<g id="clust1" class="cluster">
<title>cluster_CourseModule</title>
<polygon fill="none" stroke="black" stroke-dasharray="1,5" points="8,-70 8,-195 725,-195 725,-70 8,-70"/>
</g>
<g id="clust2" class="cluster">
<title>cluster_CourseModule_declarations</title>
<polygon fill="none" stroke="black" points="300,-78 300,-130 717,-130 717,-78 300,-78"/>
</g>
<g id="clust6" class="cluster">
<title>cluster_CourseModule_imports</title>
<polygon fill="none" stroke="black" points="16,-78 16,-130 292,-130 292,-78 16,-78"/>
</g>
<!-- EditFieldComponent -->
<g id="node1" class="node">
<title>EditFieldComponent</title>
<polygon fill="#ffffb3" stroke="black" points="708.95,-122 575.05,-122 575.05,-86 708.95,-86 708.95,-122"/>
<text text-anchor="middle" x="642" y="-99.8" font-family="Times,serif" font-size="14.00">EditFieldComponent</text>
</g>
<!-- CourseModule -->
<g id="node4" class="node">
<title>CourseModule</title>
<polygon fill="#8dd3c7" stroke="black" points="420.71,-187 417.71,-191 396.71,-191 393.71,-187 321.29,-187 321.29,-151 420.71,-151 420.71,-187"/>
<text text-anchor="middle" x="371" y="-164.8" font-family="Times,serif" font-size="14.00">CourseModule</text>
</g>
<!-- EditFieldComponent&#45;&gt;CourseModule -->
<g id="edge1" class="edge">
<title>EditFieldComponent&#45;&gt;CourseModule</title>
<path fill="none" stroke="black" d="M642,-122.28C642,-143.32 642,-175 642,-175 642,-175 430.71,-175 430.71,-175"/>
<polygon fill="black" stroke="black" points="430.71,-171.5 420.71,-175 430.71,-178.5 430.71,-171.5"/>
</g>
<!-- JoinComponent -->
<g id="node2" class="node">
<title>JoinComponent</title>
<polygon fill="#ffffb3" stroke="black" points="557.17,-122 452.83,-122 452.83,-86 557.17,-86 557.17,-122"/>
<text text-anchor="middle" x="505" y="-99.8" font-family="Times,serif" font-size="14.00">JoinComponent</text>
</g>
<!-- JoinComponent&#45;&gt;CourseModule -->
<g id="edge2" class="edge">
<title>JoinComponent&#45;&gt;CourseModule</title>
<path fill="none" stroke="black" d="M505,-122.02C505,-139.37 505,-163 505,-163 505,-163 430.9,-163 430.9,-163"/>
<polygon fill="black" stroke="black" points="430.9,-159.5 420.9,-163 430.9,-166.5 430.9,-159.5"/>
</g>
<!-- SettingsComponent -->
<g id="node3" class="node">
<title>SettingsComponent</title>
<polygon fill="#ffffb3" stroke="black" points="434.45,-122 307.55,-122 307.55,-86 434.45,-86 434.45,-122"/>
<text text-anchor="middle" x="371" y="-99.8" font-family="Times,serif" font-size="14.00">SettingsComponent</text>
</g>
<!-- SettingsComponent&#45;&gt;CourseModule -->
<g id="edge3" class="edge">
<title>SettingsComponent&#45;&gt;CourseModule</title>
<path fill="none" stroke="black" d="M371,-122.11C371,-122.11 371,-140.99 371,-140.99"/>
<polygon fill="black" stroke="black" points="367.5,-140.99 371,-150.99 374.5,-140.99 367.5,-140.99"/>
</g>
<!-- CourseRoutingModule -->
<g id="node5" class="node">
<title>CourseRoutingModule</title>
<polygon fill="#8dd3c7" stroke="black" points="284.32,-122 281.32,-126 260.32,-126 257.32,-122 139.68,-122 139.68,-86 284.32,-86 284.32,-122"/>
<text text-anchor="middle" x="212" y="-99.8" font-family="Times,serif" font-size="14.00">CourseRoutingModule</text>
</g>
<!-- CourseRoutingModule&#45;&gt;CourseModule -->
<g id="edge4" class="edge">
<title>CourseRoutingModule&#45;&gt;CourseModule</title>
<path fill="none" stroke="black" d="M212,-122.02C212,-139.37 212,-163 212,-163 212,-163 311.13,-163 311.13,-163"/>
<polygon fill="black" stroke="black" points="311.13,-166.5 321.13,-163 311.13,-159.5 311.13,-166.5"/>
</g>
<!-- SharedModule -->
<g id="node6" class="node">
<title>SharedModule</title>
<polygon fill="#8dd3c7" stroke="black" points="122.42,-122 119.42,-126 98.42,-126 95.42,-122 23.58,-122 23.58,-86 122.42,-86 122.42,-122"/>
<text text-anchor="middle" x="73" y="-99.8" font-family="Times,serif" font-size="14.00">SharedModule</text>
</g>
<!-- SharedModule&#45;&gt;CourseModule -->
<g id="edge5" class="edge">
<title>SharedModule&#45;&gt;CourseModule</title>
<path fill="none" stroke="black" d="M73,-122.28C73,-143.32 73,-175 73,-175 73,-175 311.12,-175 311.12,-175"/>
<polygon fill="black" stroke="black" points="311.12,-178.5 321.12,-175 311.12,-171.5 311.12,-178.5"/>
</g>
</g>
</svg>
